<?xml version="1.0" encoding="utf-8"?>
<!-- Generator: Adobe Illustrator 26.3.1, SVG Export Plug-In . SVG Version: 6.00 Build 0)  -->
<svg version="1.1" id="レイヤー_1" xmlns="http://www.w3.org/2000/svg" xmlns:xlink="http://www.w3.org/1999/xlink" x="0px"
	 y="0px" viewBox="0 0 1592.7 438.4" style="enable-background:new 0 0 1592.7 438.4;" xml:space="preserve">
<style type="text/css">
	.st0{fill:#1C1D1D;}
</style>
<g id="a">
</g>
<g id="b">
	<g id="c">
		<g>
			<path d="M1592.7,227.7c-0.8,0-2,0.4-2.8,0.4c-12.7,0-25.7,0-38.4,0h-2.8c0.4,4.4,2.4,7.1,5.9,9.1c2.4,1.2,4.8,2,7.5,2.4
				c7.9,0.8,15,0,21.4-4.8c0.4,0,0.4-0.4,0.8-0.4l6.7,7.5c-2,2-4.4,3.6-7.1,4.8c-7.1,3.2-14.3,4-21.8,3.6c-3.6-0.4-7.1-0.8-10.3-2
				c-11.9-4.4-17-14.3-15.4-25.7c1.2-10.3,7.1-16.6,16.6-19.4c7.9-2.4,16.2-2.4,24.2,0c7.5,2.4,12.7,7.5,14.7,15.4
				c0.4,1.2,0.4,2.4,0.8,3.6L1592.7,227.7L1592.7,227.7z M1580.5,219.8c-1.6-4.4-4-7.1-7.9-8.3c-4.4-1.2-8.7-1.2-13.1-0.4
				c-2.4,0.4-4.4,1.6-6.3,3.2c-1.6,1.6-3.2,3.2-3.6,5.5L1580.5,219.8L1580.5,219.8z"/>
			<path d="M616.2,247.9h-13.1c-0.4-1.6-0.4-55,0-57.8c0.4,0,0.8,0,1.2,0c13.5,0,27.3,0,40.8,0c4.4,0,8.3,0.8,12.3,2.8
				c9.9,4.8,12.3,14.3,9.5,22.6c-1.6,5.5-5.5,8.7-10.7,11.1c-1.2,0.4-2.8,0.8-4.4,1.6c5.9,6.7,11.5,13.5,17.4,20.2
				c-1.2,0-1.6,0-2.4,0c-4,0-7.9,0-11.5,0c-1.6,0-2.4-0.4-3.2-1.6c-4.8-5.5-9.5-11.1-13.9-16.6c-0.8-1.2-2-1.6-3.6-1.6
				c-5.5,0-11.1,0-16.2,0h-2.4L616.2,247.9L616.2,247.9z M616.2,217.4c0.8,0,1.2,0,1.6,0c8.3,0,16.2,0,24.6,0c2.4,0,4.4-0.4,6.7-0.8
				c3.6-0.8,5.5-3.6,5.5-7.1c0-4-1.6-6.3-5.5-7.1c-2.4-0.8-4.8-0.8-7.1-0.8c-7.9,0-15.4,0-23.4,0h-2.4L616.2,217.4L616.2,217.4z"/>
			<path d="M1069.6,247.9v-57.8h59v11.1c-2.8,0-5.9,0-8.7,0c-3.2,0-6.3,0-9.1,0h-27.3V213h38v11.1c-3.2,0-6.3,0-9.5,0
				c-3.2,0-6.3,0-9.5,0h-19v12.7c7.9,0,15.4,0,23.4,0c7.5,0,15.4,0,23.4,0v10.7C1127.4,247.9,1074.4,248.3,1069.6,247.9
				L1069.6,247.9z"/>
			<path d="M1032,203.5l-10.7,4.4c-0.8-1.2-2-2.4-2.8-3.6c-4.8-5.9-11.5-7.5-18.6-5.9c-0.8,0-1.2,0.4-2,0.8c-4,2-4.8,5.9-2,9.1
				c0.8,1.2,2,2,3.2,3.2c8.3,6.7,17,13.1,25.3,19.8c0,0,0.4,0.4,0.8,0.4c2-3.2,2.8-6.7,3.2-10.7c1.6-0.4,7.9-0.8,11.9-0.4
				c0,6.3-2.4,12.3-5.9,17.4c4,3.2,7.9,6.3,12.7,9.5c-1.2,0-1.6,0.4-2.4,0.4c-4,0-7.5,0-11.5,0c-2,0-3.6-0.4-4.8-1.6
				c-0.4-0.4-1.2-0.8-2-1.6c-0.4,0-0.8,0.4-1.6,0.8c-7.1,3.6-15,4.8-23,4c-4.8-0.4-9.1-1.2-13.5-3.2c-3.6-1.6-6.3-3.2-9.1-5.9
				c-6.3-6.7-5.9-16.2,1.6-21.8c1.6-1.6,4-2.4,5.9-4c-0.4-0.4-0.8-1.2-1.2-1.6c-5.5-6.3-4-15,1.6-19.8c3.2-2.4,6.3-4,10.3-4.8
				c6.7-1.2,13.1-1.2,19.4,1.2c6.7,2,11.9,6.7,15.4,12.7C1032,202.8,1032,202.8,1032,203.5z M1017,238c-7.9-5.9-15.8-11.9-23.8-17.8
				c-5.9,2.8-7.9,12.3-0.4,16.6c1.2,0.8,2.8,1.6,4.4,2c4,1.2,7.9,1.6,11.9,1.2C1011.4,240,1014.2,239.6,1017,238L1017,238z"/>
			<path d="M1201.9,241.6v22.6c-2,0.4-9.5,0.8-12.7,0.4v-62.2h12.7v6.7c0.4-0.4,0.8-0.8,0.8-0.8c5.9-6.3,13.1-8.3,21.4-7.9
				c2,0,4,0.4,5.5,0.8c9.1,2.8,14.7,9.1,16.2,18.2c0.8,4,0.8,8.3-0.4,12.3c-2,8.3-7.5,13.9-15.8,16.6c-7.1,2-14.3,1.6-20.6-2
				C1206.6,245.5,1204.7,243.5,1201.9,241.6L1201.9,241.6z M1218.5,211.1L1218.5,211.1c-0.8,0-1.6,0-2,0c-4.8,0.4-9.5,2-13.1,5.5
				c-0.8,1.2-1.6,2-1.6,3.6c0,2.4,0.4,5.1,0,7.5c-0.4,2.8,0.8,4.8,3.2,6.3c1.6,1.2,3.2,2,5.1,2.8c4.4,1.6,8.7,2,13.1,0.8
				c6.3-1.2,9.9-5.1,10.7-11.5c0.8-7.1-2-13.9-11.1-15.4C1221.7,211.5,1220.1,211.5,1218.5,211.1z"/>
			<path d="M749.7,241.6v6.3h-12.3c-0.4-1.6-0.8-58.2,0-61h12.3c0.4,2.4,0,4.8,0,7.1c0,2.4,0,5.1,0,7.5v7.5c0.8-0.8,1.2-0.8,1.2-1.2
				c5.9-5.9,13.1-7.9,21.4-7.5c1.6,0,3.6,0.4,5.1,0.8c9.5,2.8,15.8,10.3,16.6,20.2c0.4,3.6,0.4,7.1-0.8,10.7
				c-2.8,9.5-9.1,14.7-18.2,16.6c-4.8,0.8-9.5,0.8-14.3-0.8c-3.6-1.2-7.1-3.2-9.5-5.9c-0.4-0.4-0.8-0.8-1.2-0.8
				C750.5,241.6,750.5,241.6,749.7,241.6L749.7,241.6z M750.1,224.9c0,1.2,0,2.4,0,3.2c-0.4,2.8,0.8,4.8,3.2,6.3
				c6.7,4.8,13.9,5.5,21.8,2.8c4.8-1.6,6.7-5.5,7.5-10.3c0-1.2,0-2.4,0-4c-0.4-5.5-3.6-9.5-8.7-11.1c-3.2-1.2-6.3-1.2-9.9-0.8
				c-4.4,0.4-8.3,2-11.5,5.1c-1.2,1.2-2,2.4-1.6,4C750.1,222.2,750.1,223.7,750.1,224.9L750.1,224.9z"/>
			<path d="M1343.7,228.1h-43.6c0.4,4.4,2.4,7.1,5.9,9.1c3.2,1.6,6.3,2.4,9.5,2.4c7.1,0.4,13.9-0.8,19.8-5.9
				c2.4,2.4,4.8,4.8,7.1,7.5c-2,2-4.4,3.6-6.7,4.8c-7.1,3.2-14.3,4-22.2,3.6c-3.6-0.4-7.1-0.8-10.3-2c-11.9-4.4-17-14.3-15.4-25.7
				c1.2-10.3,7.1-16.6,16.6-19.8c7.9-2.4,16.2-2.4,24.2,0C1342.1,206.7,1345.2,218.6,1343.7,228.1L1343.7,228.1z M1300.5,219.8
				c10.7,0,21,0,31.3-0.4c-1.2-3.2-2.4-5.5-5.1-6.7c-7.1-3.6-14.3-3.2-21,0.4c-1.2,0.8-2.4,2-3.2,3.2
				C1301.7,217.4,1301.3,218.2,1300.5,219.8z"/>
			<path d="M730.7,225.3c0,10.7-5.5,18.6-15.4,22.2c-9.1,3.2-18.2,3.2-27.3,0c-11.9-4.4-16.6-14.3-15.4-26.1
				c1.2-9.9,7.1-15.8,16.2-19c8.3-2.8,16.6-2.8,24.9,0C725.1,205.5,731,214.6,730.7,225.3L730.7,225.3z M701.3,239.2
				c3.6,0,6.7-0.4,9.9-2c4.8-2.8,7.1-6.7,7.1-11.9s-2-9.5-7.1-11.9c-6.3-3.2-13.1-3.2-19.4,0c-4.8,2.4-7.1,6.7-7.1,11.9
				s2,9.5,6.7,11.9C694.6,238.8,697.8,239.2,701.3,239.2L701.3,239.2z"/>
			<path d="M1345.6,240.8c2-2.8,4-5.1,6.3-7.5c1.6,0.8,2.8,1.6,4,2.4c4.8,2.8,9.9,4,15.4,4c3.2,0,6.7,0,9.9-0.4
				c1.6,0,2.8-0.8,4.4-1.2c1.2-0.4,2-1.6,2-3.2c0-1.6-0.8-2.4-2-2.8c-2.4-0.8-5.1-1.6-7.9-2c-5.1-0.8-10.3-1.2-15.4-2
				c-2.8-0.4-5.9-1.6-8.3-3.2c-8.7-4.8-7.1-14.7-2-19c2.8-2.4,6.3-4,9.9-4.8c10.7-2.4,21.4-1.2,31.7,3.2c1.2,0.8,2.8,1.6,4,2.4
				c-2,2.8-4,5.5-5.9,7.9c-0.8-0.4-1.2-0.4-1.6-0.8c-7.9-4.4-16.2-4.8-24.9-3.6c-1.2,0-2.8,0.8-3.6,1.6c-2.4,1.2-2,4,0.4,4.8
				c2.4,0.8,4.8,1.2,7.5,1.6c4.8,0.8,9.5,0.8,14.3,1.6c3.2,0.4,6.3,1.6,9.5,3.2c9.5,4.8,8.3,15.8,2,21c-2.4,2-5.1,3.2-7.9,4
				c-12.7,3.2-24.9,1.6-36.4-4.8C1348.4,242.7,1347.2,241.6,1345.6,240.8L1345.6,240.8z"/>
			<path d="M859,240.8l6.3-7.5c3.2,2.4,6.3,4,9.9,5.1c6.3,2,13.1,2.4,19.4,1.2c1.6,0,2.8-0.8,4-1.2c1.2-0.4,2-1.6,2-3.2
				c0-1.6-0.8-2.4-2-2.8c-2.4-0.8-5.1-1.6-7.5-2c-5.1-0.8-10.7-1.2-15.8-2c-2.8-0.4-5.9-1.6-8.3-3.2c-8.7-4.4-7.1-14.7-2-19
				c3.2-2.8,6.7-4,10.3-4.8c10.7-2,21-1.2,30.9,3.2c1.6,0.8,2.8,1.6,4.8,2.4l-5.9,7.9c-0.8-0.4-1.2-0.8-2-0.8
				c-7.9-4.4-16.2-4.8-24.9-3.6c-0.8,0-1.6,0.4-2,0.8c-2.4,0.8-3.6,2-3.2,3.2c0.4,2,1.6,2.8,3.2,2.8c2,0.4,4,0.8,5.9,1.2
				c4.8,0.4,9.5,0.8,14.3,1.6c3.2,0.4,6.3,1.6,9.5,3.2c9.5,4.8,8.3,15.8,1.6,21c-3.6,2.8-7.5,4-11.9,4.8c-10.3,1.6-20.2,0.4-29.7-4
				C863.3,243.9,860.9,242.4,859,240.8L859,240.8z"/>
			<path d="M1452.6,207.1l-5.9,7.9c-0.4,0-0.8,0-0.8-0.4c-7.9-4.8-16.2-5.1-25.3-4c-1.6,0-2.8,0.8-4,1.2c-1.2,0.4-2,1.2-2,2.8
				c0,1.2,0.8,2,2,2.4c2.4,0.8,4.8,1.2,7.1,1.6c4.8,0.8,9.5,0.8,14.3,1.6c3.2,0.4,6.3,1.6,9.5,3.2c9.5,4.8,8.7,15.8,1.6,21
				c-3.6,2.8-7.9,4-11.9,4.8c-9.9,1.6-19.8,0.4-29.3-4c-2.4-1.2-4.8-2.4-7.1-4.8c2-2.4,4-4.8,5.9-7.5c0.4,0,0.4,0,0.8,0.4
				c4.4,3.2,9.1,4.8,14.3,5.5c4.8,0.8,9.5,0.8,14.3,0c1.6-0.4,3.2-0.8,4.4-1.6c2.8-1.6,2.8-4.4,0-5.5c-2.4-0.8-5.1-1.6-7.5-2
				c-4.4-0.8-9.1-0.8-13.5-1.6c-2.8-0.4-5.5-1.2-8.3-2.4c-1.2-0.4-2.4-1.2-3.6-1.6c-7.1-4.4-6.3-12.7-2.8-17c2-2,4-3.6,6.7-4.8
				c4-1.6,8.3-2.4,12.7-2.8c8.7-0.4,16.6,0.8,24.6,4.8C1450.2,205.5,1451,206.3,1452.6,207.1L1452.6,207.1z"/>
			<path d="M800.3,202.4H813v2.8c0,7.1,0,14.3,0,21.4c0,1.2,0,2.4,0,3.6c0.4,5.1,3.6,8.7,9.1,9.5c7.1,0.8,13.1-1.6,17.4-7.5
				c0.8-1.2,1.2-2.4,1.2-4c0-7.5,0-15,0-22.6v-2.4c2-0.4,9.5-0.8,12.7,0v45.5h-12.7v-7.9c-0.4,0.4-0.8,0.4-0.8,0.8
				c-5.9,7.1-13.5,8.7-22.2,8.3c-1.6,0-3.2-0.4-4.4-0.8c-7.5-2.4-12.3-8.3-13.1-16.6c0-1.2,0-2.4,0-4c0-7.9,0-15.4,0-23.4
				L800.3,202.4L800.3,202.4z"/>
			<path d="M1129.8,247.9c7.1-7.9,13.5-15.4,20.2-23c-6.7-7.5-13.1-15-20.2-22.6c0.8,0,1.6,0,2,0c3.6,0,7.1,0,11.1,0
				c1.2,0,2,0.4,3.2,1.6c3.6,4,6.7,7.9,10.3,11.9c0.4,0.8,1.2,1.2,1.6,2c0.8-1.2,2-2,2.8-3.2c3.2-3.6,6.3-7.1,9.5-10.7
				c0.4-0.4,1.2-1.2,2-1.2c4.4,0,8.3,0,13.5,0c-6.7,7.5-13.5,15-20.2,22.6c6.7,7.5,13.5,15,20.2,23.4c-1.2,0-2,0-2.4,0
				c-3.2,0-6.7,0-9.9,0c-2,0-2.8-0.4-4-2c-3.2-4-6.7-7.9-9.9-11.9c-0.4-0.8-1.2-1.2-1.6-2c-0.4,0.8-1.2,1.2-1.6,2
				c-3.6,4-7.1,7.9-10.7,12.3c-0.8,1.2-2,1.6-3.2,1.6c-3.6,0-6.7,0-10.3,0C1131,247.9,1130.6,247.9,1129.8,247.9L1129.8,247.9z"/>
			<path d="M921.5,191.7h13.1v10.7h18.6v9.5h-18.6c0,0.8-0.4,1.6-0.4,2c0,5.5,0,11.1,0,17c0,5.5,2.8,8.3,8.3,7.9
				c2,0,3.6-0.8,5.5-1.2c0.8,0,1.6-0.8,2.8-1.2l2.8,8.7c-2.8,2-5.9,3.2-9.1,4c-4,0.8-8.3,1.2-12.3,0c-6.7-2-11.1-7.1-11.1-14.3
				c0-6.7,0-13.5,0-19.8v-2.8h-8.3v-9.5h8.3L921.5,191.7L921.5,191.7z"/>
			<path d="M1506.4,235.2c5.1-11.1,10.3-21.8,15.4-32.9h13.5c-0.4,0.8-0.4,1.2-0.8,2c-7.1,13.9-13.9,28.1-21,42
				c-0.8,1.2-1.2,2-2.8,2c-4,0-7.9,0-11.9,0c-7.5-15-15-30.5-23-45.5h13.9c5.1,11.1,10.3,21.8,15.4,32.9L1506.4,235.2L1506.4,235.2z
				"/>
			<path d="M1266,247.9h-12.7v-45.5h12.7v7.9l0.4,0.4c4.8-6.7,11.9-9.5,19.8-9.5v10.7c-2,0.4-3.6,0.4-5.5,0.8
				c-5.5,0.8-9.9,3.2-13.1,7.9c-1.2,2-2,4-2,6.3c0,5.9,0,12.3,0,18.2C1265.6,245.9,1265.6,246.7,1266,247.9L1266,247.9z"/>
			<path d="M1460.1,202.4h12.7v45.5h-12.7V202.4z"/>
			<path d="M1466,196.8c-1.2-0.4-2.8-0.8-4.4-1.2c-2-1.2-3.2-3.2-3.2-5.5c0-2.4,1.2-4.4,3.2-5.1c2.4-1.2,4.8-1.2,7.5-0.8
				c3.2,0.8,4.8,3.2,4.8,5.9s-1.6,5.1-4.8,5.9C1468.4,196.4,1467.6,196.4,1466,196.8L1466,196.8z"/>
			<path class="st0" d="M562,0c-30.9,0-95.4,0-126.7,0l0,0c-93.5,0.4-209.1,0-302.1,0c-8.3,0-15.4,5.5-17.8,13.5L59.8,212.3l-4,13.5
				L0.4,424.5c-2,6.7,3.2,13.5,10.3,13.5c24.9,0,78,0,103.4,0l0,0c97.4,0,229.3,0,325.5,0c8.3,0,15.4-5.5,17.8-13.5
				c28.5-102.6,86.3-309.3,114.8-411.4l0,0C574.2,6.7,569.1,0,562,0z M174.3,13.5h39.6l0,0h165.5L324,212.3h-70.1l0,0H118.4
				L174.3,13.5z M114.9,225.7h76.4l-55.4,198.8H59L114.9,225.7z M398.8,424.9H264.2l0,0h-69.7l55.4-198.8c44,0,158.8,0,203.9,0
				L398.8,424.9z M457.8,212.3h-75.6l55.4-198.8h75.6L457.8,212.3z"/>
			<rect x="85.2" y="195.6" class="st0" width="402.3" height="47.5"/>
			<rect x="134.7" class="st0" width="402.3" height="47.5"/>
			<rect x="38" y="390.9" class="st0" width="402.3" height="47.5"/>
		</g>
	</g>
</g>
</svg>
