<?xml version="1.0" encoding="UTF-8"?><svg id="_イヤー_1" xmlns="http://www.w3.org/2000/svg" viewBox="0 0 945.36 808.51"><defs><style>.cls-1{fill:#1c1d1d;}</style></defs><path class="cls-1" d="M927.84,.1h-209.49v-.03c-154.53,.39-345.47-.28-498.68,0-13.64,0-25.61,10.14-29.27,24.82L98.63,391.8l-6.22,24.86L.66,783.54c-3.12,12.49,5.28,24.86,16.89,24.86,41.2,.34,128.82-.24,170.51,0v.03c160.88-.17,378.39,.12,537.61,0,13.64,0,25.61-10.15,29.28-24.82,47.18-189.01,142.68-570.2,189.75-758.69h0c3.12-12.47-5.27-24.82-16.86-24.82ZM287.35,24.89h65.23v.03h273.37l-91.77,366.92h-115.06v-.03H195.58L287.35,24.89Zm-97.99,391.78h126.54l-91.75,366.87H97.61l91.75-366.87Zm468.66,366.9h-221.81v.02h-115.06s91.76-366.88,91.76-366.89h336.87l-91.75,366.87Zm97.97-391.73h-124.86L722.9,24.92h124.86l-91.77,366.92Z"/><rect class="cls-1" x="140.45" y="360.45" width="664.46" height="87.6"/><rect class="cls-1" x="222.38" y=".07" width="664.46" height="87.6"/><rect class="cls-1" x="62.79" y="720.83" width="664.46" height="87.6"/></svg>