<?xml version="1.0" encoding="utf-8"?>
<!-- Generator: Adobe Illustrator 26.3.1, SVG Export Plug-In . SVG Version: 6.00 Build 0)  -->
<svg version="1.1" id="a" xmlns="http://www.w3.org/2000/svg" xmlns:xlink="http://www.w3.org/1999/xlink" x="0px" y="0px"
	 viewBox="0 0 464 158" style="enable-background:new 0 0 464 158;" xml:space="preserve">
<style type="text/css">
	.st0{fill:#FFFFFF;stroke:#FFFFFF;stroke-miterlimit:10;}
	.st1{fill:#1C1D1D;}
</style>
<rect x="0.5" y="0.5" class="st0" width="463" height="157"/>
<g id="b">
	<g id="c">
		<g>
			<path d="M433.9,81.4c-0.2,0.1-0.5,0.1-0.7,0.1h-10.4c0.1,1.1,0.6,1.8,1.5,2.3c0.6,0.3,1.2,0.5,1.9,0.6c2,0.2,3.8,0,5.4-1.2
				c0.1-0.1,0.1-0.1,0.2-0.1l1.7,1.9c-0.5,0.5-1.1,0.9-1.8,1.2c-1.8,0.8-3.6,1-5.5,0.9c-0.9-0.1-1.8-0.2-2.6-0.5
				c-3-1.1-4.3-3.6-3.9-6.5c0.3-2.6,1.8-4.2,4.2-4.9c2-0.6,4.1-0.6,6.1,0c1.9,0.6,3.2,1.9,3.7,3.9c0.1,0.3,0.1,0.6,0.2,0.9
				L433.9,81.4L433.9,81.4L433.9,81.4z M430.8,79.5c-0.4-1.1-1-1.8-2-2.1c-1.1-0.3-2.2-0.3-3.3-0.1c-0.6,0.1-1.1,0.4-1.6,0.8
				c-0.4,0.4-0.8,0.8-0.9,1.4L430.8,79.5L430.8,79.5z"/>
			<path d="M187.4,86.6h-3.3c-0.1-0.4-0.1-13.9,0-14.6c0.1,0,0.2,0,0.3,0c3.4,0,6.9,0,10.3,0c1.1,0,2.1,0.2,3.1,0.7
				c2.5,1.2,3.1,3.6,2.4,5.7c-0.4,1.4-1.4,2.2-2.7,2.8c-0.3,0.1-0.7,0.2-1.1,0.4c1.5,1.7,2.9,3.4,4.4,5.1c-0.3,0-0.4,0-0.6,0h-2.9
				c-0.4,0-0.6-0.1-0.8-0.4c-1.2-1.4-2.4-2.8-3.5-4.2c-0.2-0.3-0.5-0.4-0.9-0.4c-1.4,0-2.8,0-4.1,0h-0.6V86.6L187.4,86.6L187.4,86.6
				z M187.4,78.9c0.2,0,0.3,0,0.4,0h6.2c0.6,0,1.1-0.1,1.7-0.2c0.9-0.2,1.4-0.9,1.4-1.8c0-1-0.4-1.6-1.4-1.8
				c-0.6-0.2-1.2-0.2-1.8-0.2c-2,0-3.9,0-5.9,0h-0.6L187.4,78.9L187.4,78.9L187.4,78.9L187.4,78.9z"/>
			<path d="M301.8,86.6V72h14.9v2.8c-0.7,0-1.5,0-2.2,0h-9.3v3h9.6v2.8c-0.8,0-1.6,0-2.4,0h-7.2v3.2h11.7v2.7
				C316.5,86.6,303.1,86.7,301.8,86.6L301.8,86.6L301.8,86.6z"/>
			<path d="M292.4,75.4l-2.7,1.1c-0.2-0.3-0.5-0.6-0.7-0.9c-1.2-1.5-2.9-1.9-4.7-1.5c-0.2,0-0.3,0.1-0.5,0.2c-1,0.5-1.2,1.5-0.5,2.3
				c0.2,0.3,0.5,0.5,0.8,0.8c2.1,1.7,4.3,3.3,6.4,4.9c0,0,0.1,0.1,0.2,0.1c0.5-0.8,0.7-1.7,0.8-2.7c0.4-0.1,2-0.2,3-0.1
				c0,1.6-0.6,3.1-1.5,4.4c1,0.8,2,1.6,3.2,2.4c-0.3,0-0.4,0.1-0.6,0.1c-1,0-1.9,0-2.9,0c-0.5,0-0.9-0.1-1.2-0.4
				c-0.1-0.1-0.3-0.2-0.5-0.4c-0.1,0.1-0.2,0.1-0.4,0.2c-1.8,0.9-3.8,1.2-5.8,1c-1.2-0.1-2.3-0.3-3.4-0.8c-0.9-0.4-1.6-0.8-2.3-1.5
				c-1.6-1.7-1.5-4.1,0.4-5.6c0.4-0.4,1-0.6,1.5-1c-0.1-0.1-0.2-0.3-0.3-0.4c-1.4-1.6-1-3.8,0.4-4.9c0.8-0.6,1.6-1,2.6-1.2
				c1.7-0.3,3.3-0.3,4.9,0.3c1.7,0.6,3,1.7,3.9,3.2C292.4,75.2,292.4,75.2,292.4,75.4L292.4,75.4L292.4,75.4z M288.6,84.1
				c-2-1.5-4-3-6-4.5c-1.5,0.7-2,3.1-0.1,4.2c0.3,0.2,0.7,0.4,1.1,0.5c1,0.3,2,0.4,3,0.3C287.2,84.6,287.9,84.5,288.6,84.1
				L288.6,84.1L288.6,84.1z"/>
			<path d="M335.3,85v5.7c-0.5,0.1-2.4,0.2-3.2,0.1V75.1h3.2v1.7c0.1-0.1,0.2-0.2,0.2-0.2c1.5-1.6,3.3-2.1,5.4-1.9
				c0.5,0,1,0.1,1.4,0.2c2.3,0.7,3.7,2.3,4.1,4.6c0.2,1,0.2,2.1-0.1,3.1c-0.5,2.1-1.9,3.6-4,4.2c-1.8,0.5-3.6,0.4-5.2-0.5
				C336.5,86,335.9,85.5,335.3,85L335.3,85z M339.5,77.3L339.5,77.3l-0.5,0c-1.2,0.1-2.4,0.5-3.3,1.4c-0.2,0.3-0.4,0.5-0.4,0.9
				c0,0.6,0.1,1.3,0,1.9c-0.1,0.7,0.2,1.2,0.8,1.6c0.4,0.3,0.8,0.6,1.3,0.7c1.1,0.4,2.2,0.5,3.3,0.2c1.6-0.3,2.5-1.3,2.7-2.9
				c0.2-1.8-0.5-3.5-2.8-3.9C340.2,77.4,339.9,77.4,339.5,77.3z"/>
			<path d="M221.1,85v1.6H218c-0.1-0.4-0.2-14.7,0-15.4h3.1c0.1,0.6,0,1.2,0,1.8v3.9c0.2-0.2,0.3-0.2,0.3-0.3c1.5-1.6,3.3-2,5.4-1.9
				c0.4,0,0.9,0.1,1.3,0.2c2.4,0.7,4,2.6,4.2,5.1c0.1,0.9,0.1,1.8-0.2,2.7c-0.7,2.4-2.3,3.7-4.6,4.2c-1.2,0.2-2.4,0.2-3.6-0.2
				c-0.9-0.3-1.8-0.8-2.4-1.5c-0.1-0.1-0.2-0.2-0.3-0.2C221.3,85,221.2,85,221.1,85L221.1,85L221.1,85z M221.2,80.9
				c0,0.3,0,0.6,0,0.8c-0.1,0.7,0.2,1.2,0.8,1.6c1.7,1.2,3.5,1.4,5.5,0.7c1.2-0.4,1.7-1.4,1.9-2.6c0-0.3,0-0.6,0-1
				c-0.1-1.4-0.9-2.4-2.2-2.8c-0.8-0.3-1.6-0.3-2.5-0.2c-1.1,0.1-2.1,0.5-2.9,1.3c-0.3,0.3-0.5,0.6-0.4,1.1
				C221.2,80.2,221.2,80.5,221.2,80.9L221.2,80.9L221.2,80.9z"/>
			<path d="M371.1,81.6h-11c0.1,1.1,0.6,1.8,1.5,2.3c0.8,0.4,1.6,0.6,2.4,0.6c1.8,0.1,3.5-0.2,5-1.5c0.6,0.6,1.2,1.2,1.8,1.9
				c-0.5,0.5-1.1,0.9-1.7,1.2c-1.8,0.8-3.6,1-5.6,0.9c-0.9-0.1-1.8-0.2-2.6-0.5c-3-1.1-4.3-3.6-3.9-6.5c0.3-2.6,1.8-4.2,4.2-5
				c2-0.6,4.1-0.6,6.1,0.1C370.6,76.2,371.5,79.2,371.1,81.6L371.1,81.6L371.1,81.6z M360.2,79.5c2.7,0,5.3,0,7.9-0.1
				c-0.3-0.8-0.6-1.4-1.3-1.7c-1.8-0.9-3.6-0.8-5.3,0.1c-0.3,0.2-0.6,0.5-0.8,0.8C360.4,78.9,360.4,79.2,360.2,79.5z"/>
			<path d="M216.3,80.9c0,2.7-1.4,4.7-3.9,5.6c-2.3,0.8-4.6,0.8-6.9,0c-3-1.1-4.2-3.6-3.9-6.6c0.3-2.5,1.8-4,4.1-4.8
				c2.1-0.7,4.2-0.7,6.3,0C214.9,75.9,216.4,78.2,216.3,80.9L216.3,80.9L216.3,80.9z M208.9,84.4c0.9,0,1.7-0.1,2.5-0.6
				c1.2-0.7,1.8-1.7,1.8-3c0-1.3-0.5-2.4-1.8-3c-1.6-0.8-3.3-0.8-4.9,0c-1.2,0.6-1.8,1.7-1.8,3s0.5,2.4,1.7,3
				C207.2,84.3,208,84.4,208.9,84.4L208.9,84.4L208.9,84.4L208.9,84.4z"/>
			<path d="M371.6,84.8c0.5-0.7,1-1.3,1.6-1.9c0.4,0.2,0.7,0.4,1,0.6c1.2,0.7,2.5,1,3.9,1c0.8,0,1.7,0,2.5-0.1
				c0.4,0,0.7-0.2,1.1-0.3c0.3-0.1,0.5-0.4,0.5-0.8s-0.2-0.6-0.5-0.7c-0.6-0.2-1.3-0.4-2-0.5c-1.3-0.2-2.6-0.3-3.9-0.5
				c-0.7-0.1-1.5-0.4-2.1-0.8c-2.2-1.2-1.8-3.7-0.5-4.8c0.7-0.6,1.6-1,2.5-1.2c2.7-0.6,5.4-0.3,8,0.8c0.3,0.2,0.7,0.4,1,0.6
				c-0.5,0.7-1,1.4-1.5,2c-0.2-0.1-0.3-0.1-0.4-0.2c-2-1.1-4.1-1.2-6.3-0.9c-0.3,0.1-0.7,0.2-0.9,0.4c-0.6,0.3-0.5,1,0.1,1.2
				c0.6,0.2,1.2,0.3,1.9,0.4c1.2,0.2,2.4,0.2,3.6,0.4c0.8,0.1,1.6,0.4,2.4,0.8c2.4,1.2,2.1,3.9,0.5,5.3c-0.6,0.5-1.3,0.8-2,1
				c-3.2,0.8-6.3,0.4-9.2-1.2C372.3,85.3,372,85,371.6,84.8L371.6,84.8L371.6,84.8z"/>
			<path d="M248.7,84.8l1.6-1.9c0.8,0.6,1.6,1,2.5,1.3c1.6,0.5,3.3,0.6,4.9,0.3c0.4-0.1,0.7-0.2,1-0.3c0.3-0.1,0.5-0.4,0.5-0.8
				s-0.2-0.6-0.5-0.7c-0.6-0.2-1.3-0.4-1.9-0.5c-1.3-0.2-2.7-0.3-4-0.5c-0.7-0.1-1.5-0.4-2.1-0.8c-2.2-1.1-1.8-3.7-0.5-4.8
				c0.8-0.7,1.7-1,2.6-1.2c2.7-0.5,5.3-0.3,7.8,0.8c0.4,0.2,0.7,0.4,1.2,0.6l-1.5,2c-0.2-0.1-0.3-0.2-0.5-0.2
				c-2-1.1-4.1-1.2-6.3-0.9c-0.2,0-0.4,0.1-0.5,0.2c-0.6,0.2-0.9,0.5-0.8,0.8c0.1,0.5,0.4,0.7,0.8,0.7c0.5,0.1,1,0.2,1.5,0.3
				c1.2,0.1,2.4,0.2,3.6,0.4c0.8,0.1,1.6,0.4,2.4,0.8c2.4,1.2,2.1,4,0.4,5.3c-0.9,0.7-1.9,1-3,1.2c-2.6,0.4-5.1,0.1-7.5-1
				C249.8,85.6,249.2,85.2,248.7,84.8L248.7,84.8L248.7,84.8z"/>
			<path d="M398.5,76.3l-1.5,2c-0.1,0-0.2-0.1-0.2-0.1c-2-1.2-4.1-1.3-6.4-1c-0.4,0.1-0.7,0.2-1,0.3c-0.3,0.1-0.5,0.3-0.5,0.7
				c0,0.3,0.2,0.6,0.5,0.6c0.6,0.2,1.2,0.3,1.8,0.4c1.2,0.2,2.4,0.2,3.6,0.4c0.8,0.1,1.6,0.4,2.4,0.8c2.4,1.2,2.2,4.1,0.4,5.3
				c-0.9,0.7-2,1-3,1.2c-2.5,0.4-5,0.1-7.4-1c-0.6-0.3-1.2-0.6-1.8-1.2c0.5-0.6,1-1.2,1.5-1.9c0.1,0,0.1,0,0.2,0.1
				c1.1,0.8,2.3,1.2,3.6,1.4c1.2,0.2,2.4,0.2,3.6,0c0.4-0.1,0.8-0.2,1.1-0.4c0.7-0.4,0.7-1.1,0-1.4c-0.6-0.2-1.3-0.4-1.9-0.5
				c-1.1-0.2-2.3-0.2-3.4-0.4c-0.7-0.1-1.4-0.3-2.1-0.6c-0.3-0.1-0.6-0.3-0.9-0.4c-1.8-1.1-1.6-3.2-0.7-4.3c0.5-0.6,1-0.9,1.7-1.2
				c1-0.4,2.1-0.6,3.2-0.7c2.2-0.1,4.2,0.2,6.2,1.2C397.9,75.9,398.2,76.1,398.5,76.3L398.5,76.3C398.6,76.3,398.5,76.3,398.5,76.3z
				"/>
			<path d="M233.9,75.1h3.2v6.1c0,0.3,0,0.6,0,0.9c0.1,1.3,0.9,2.2,2.3,2.4c1.8,0.2,3.3-0.4,4.4-1.9c0.2-0.3,0.3-0.6,0.3-1
				c0-1.9,0-3.8,0-5.7v-0.6c0.5-0.1,2.4-0.2,3.2-0.1v11.4h-3.2v-1.8c-0.1,0.1-0.2,0.1-0.2,0.2c-1.5,1.8-3.4,2.2-5.6,2.1
				c-0.4,0-0.8-0.1-1.1-0.2c-1.9-0.6-3.1-2.1-3.3-4.2c0-0.3,0-0.6,0-1L233.9,75.1L233.9,75.1L233.9,75.1z"/>
			<path d="M317.1,86.6c1.8-2,3.4-3.9,5.1-5.8c-1.7-1.9-3.3-3.8-5.1-5.7c0.2,0,0.4,0,0.5,0h2.8c0.3,0,0.5,0.1,0.8,0.4
				c0.9,1,1.7,2,2.6,3c0.1,0.2,0.3,0.3,0.4,0.5c0.2-0.3,0.5-0.5,0.7-0.8c0.8-0.9,1.6-1.8,2.4-2.7c0.1-0.1,0.3-0.3,0.5-0.3
				c1.1,0,2.1,0,3.4,0c-1.7,1.9-3.4,3.8-5.1,5.7c1.7,1.9,3.4,3.8,5.1,5.9c-0.3,0-0.5,0-0.6,0c-0.8,0-1.7,0-2.5,0
				c-0.5,0-0.7-0.1-1-0.5c-0.8-1-1.7-2-2.5-3c-0.1-0.2-0.3-0.3-0.4-0.5c-0.1,0.2-0.3,0.3-0.4,0.5c-0.9,1-1.8,2.1-2.7,3.1
				c-0.2,0.3-0.5,0.4-0.8,0.4c-0.9,0-1.7,0-2.6,0C317.4,86.6,317.3,86.6,317.1,86.6L317.1,86.6L317.1,86.6L317.1,86.6z"/>
			<path d="M264.5,72.4h3.3V75h4.7v2.4h-4.7c0,0.2,0,0.4,0,0.5v4.3c0,1.4,0.7,2.1,2.1,2.1c0.5,0,0.9-0.2,1.4-0.3
				c0.2-0.1,0.4-0.2,0.7-0.3l0.7,2.2c-0.7,0.5-1.5,0.8-2.3,1c-1,0.2-2.1,0.3-3.1,0c-1.7-0.5-2.8-1.8-2.8-3.6v-5.8h-2.1v-2.4h2.1
				L264.5,72.4L264.5,72.4L264.5,72.4z"/>
			<path d="M412.2,83.4c1.3-2.8,2.6-5.5,3.9-8.3h3.4c-0.1,0.2-0.1,0.3-0.2,0.4c-1.8,3.5-3.5,7.1-5.3,10.6c-0.2,0.3-0.3,0.5-0.7,0.5
				c-1,0-2,0-3,0c-1.9-3.8-3.8-7.7-5.8-11.5h3.5c1.3,2.8,2.6,5.5,3.9,8.3L412.2,83.4L412.2,83.4z"/>
			<path d="M351.4,86.6h-3.2V75.1h3.2v2.1l0.1,0.1c1.2-1.7,3-2.4,5-2.4v2.7c-0.5,0.1-0.9,0.1-1.4,0.2c-1.4,0.2-2.5,0.8-3.3,2
				c-0.3,0.5-0.5,1-0.5,1.6c0,1.5,0,3.1,0,4.6L351.4,86.6L351.4,86.6L351.4,86.6z"/>
			<path d="M400.5,75.1h3.2v11.5h-3.2V75.1z"/>
			<path d="M402,73.7c-0.3-0.1-0.7-0.2-1.1-0.3c-0.5-0.3-0.8-0.8-0.8-1.4c0-0.6,0.3-1.1,0.8-1.3c0.6-0.3,1.2-0.3,1.9-0.2
				c0.8,0.2,1.2,0.8,1.2,1.5c0,0.7-0.4,1.3-1.2,1.6C402.6,73.6,402.3,73.6,402,73.7L402,73.7L402,73.7z"/>
			<path class="st1" d="M158,32.2c-6.9,0-21.3,0-28.3,0v0c-20.9,0-46.7,0-67.4,0c-1.8,0-3.5,1.2-4,3L45.9,79.5l-0.8,3
				c0,0-12.4,44.4-12.4,44.4c-0.4,1.5,0.7,3,2.3,3c5.6,0,17.4,0,23,0v0c21.7,0,51.1,0,72.6,0c1.8,0,3.5-1.2,4-3
				c6.4-22.9,19.3-69,25.6-91.8l0,0C160.7,33.7,159.5,32.2,158,32.2z M71.4,35.2h8.8v0h36.9l-12.4,44.4H89.2l0,0H59L71.4,35.2z
				 M58.2,82.6h17.1l-12.4,44.4H45.8L58.2,82.6z M121.5,126.9h-30l0,0H76c0,0,12.4-44.4,12.4-44.4c9.8,0,35.4,0,45.5,0L121.5,126.9z
				 M134.8,79.5h-16.9l12.4-44.4h16.9L134.8,79.5z"/>
			<rect x="51.6" y="75.8" class="st1" width="89.8" height="10.6"/>
			<rect x="62.7" y="32.2" class="st1" width="89.8" height="10.6"/>
			<rect x="41.1" y="119.3" class="st1" width="89.8" height="10.6"/>
		</g>
	</g>
</g>
</svg>
