<?xml version="1.0" encoding="UTF-8"?><svg id="a" xmlns="http://www.w3.org/2000/svg" viewBox="0 0 464 158"><defs><style>.cls-1{fill:#1c1d1d;}.cls-2{fill:#fff;stroke:#fff;stroke-miterlimit:10;}</style></defs><rect class="cls-2" x=".5" y=".5" width="463" height="157"/><g id="b"><g id="c"><g><path d="M433.9,81.4c-.2,.1-.5,.1-.7,.1h-10.4c.1,1.1,.6,1.8,1.5,2.3,.6,.3,1.2,.5,1.9,.6,2,.2,3.8,0,5.4-1.2q.1-.1,.2-.1l1.7,1.9c-.5,.5-1.1,.9-1.8,1.2-1.8,.8-3.6,1-5.5,.9-.9-.1-1.8-.2-2.6-.5-3-1.1-4.3-3.6-3.9-6.5,.3-2.6,1.8-4.2,4.2-4.9,2-.6,4.1-.6,6.1,0,1.9,.6,3.2,1.9,3.7,3.9,.1,.3,.1,.6,.2,.9v1.4h0Zm-3.1-1.9c-.4-1.1-1-1.8-2-2.1-1.1-.3-2.2-.3-3.3-.1-.6,.1-1.1,.4-1.6,.8-.4,.4-.8,.8-.9,1.4h7.8Z"/><path d="M187.4,86.6h-3.3c-.1-.4-.1-13.9,0-14.6h10.6c1.1,0,2.1,.2,3.1,.7,2.5,1.2,3.1,3.6,2.4,5.7-.4,1.4-1.4,2.2-2.7,2.8-.3,.1-.7,.2-1.1,.4,1.5,1.7,2.9,3.4,4.4,5.1h-3.5c-.4,0-.6-.1-.8-.4-1.2-1.4-2.4-2.8-3.5-4.2-.2-.3-.5-.4-.9-.4h-4.7v4.9h0Zm0-7.7h6.6c.6,0,1.1-.1,1.7-.2,.9-.2,1.4-.9,1.4-1.8,0-1-.4-1.6-1.4-1.8-.6-.2-1.2-.2-1.8-.2h-6.5v4h0Z"/><path d="M301.8,86.6v-14.6h14.9v2.8h-11.5v3h9.6v2.8h-9.6v3.2h11.7v2.7c-.4,.1-13.8,.2-15.1,.1h0Z"/><path d="M292.4,75.4l-2.7,1.1c-.2-.3-.5-.6-.7-.9-1.2-1.5-2.9-1.9-4.7-1.5-.2,0-.3,.1-.5,.2-1,.5-1.2,1.5-.5,2.3,.2,.3,.5,.5,.8,.8,2.1,1.7,4.3,3.3,6.4,4.9,0,0,.1,.1,.2,.1,.5-.8,.7-1.7,.8-2.7,.4-.1,2-.2,3-.1,0,1.6-.6,3.1-1.5,4.4,1,.8,2,1.6,3.2,2.4-.3,0-.4,.1-.6,.1h-2.9c-.5,0-.9-.1-1.2-.4-.1-.1-.3-.2-.5-.4-.1,.1-.2,.1-.4,.2-1.8,.9-3.8,1.2-5.8,1-1.2-.1-2.3-.3-3.4-.8-.9-.4-1.6-.8-2.3-1.5-1.6-1.7-1.5-4.1,.4-5.6,.4-.4,1-.6,1.5-1-.1-.1-.2-.3-.3-.4-1.4-1.6-1-3.8,.4-4.9,.8-.6,1.6-1,2.6-1.2,1.7-.3,3.3-.3,4.9,.3,1.7,.6,3,1.7,3.9,3.2q-.1,.2-.1,.4h0Zm-3.8,8.7l-6-4.5c-1.5,.7-2,3.1-.1,4.2,.3,.2,.7,.4,1.1,.5,1,.3,2,.4,3,.3,.6,0,1.3-.1,2-.5h0Z"/><path d="M335.3,85v5.7c-.5,.1-2.4,.2-3.2,.1v-15.7h3.2v1.7l.2-.2c1.5-1.6,3.3-2.1,5.4-1.9,.5,0,1,.1,1.4,.2,2.3,.7,3.7,2.3,4.1,4.6,.2,1,.2,2.1-.1,3.1-.5,2.1-1.9,3.6-4,4.2-1.8,.5-3.6,.4-5.2-.5-.6-.3-1.2-.8-1.8-1.3h0Zm4.2-7.7h-.5c-1.2,.1-2.4,.5-3.3,1.4-.2,.3-.4,.5-.4,.9,0,.6,.1,1.3,0,1.9-.1,.7,.2,1.2,.8,1.6,.4,.3,.8,.6,1.3,.7,1.1,.4,2.2,.5,3.3,.2,1.6-.3,2.5-1.3,2.7-2.9,.2-1.8-.5-3.5-2.8-3.9-.4,.2-.7,.2-1.1,.1Z"/><path d="M221.1,85v1.6h-3.1c-.1-.4-.2-14.7,0-15.4h3.1c.1,.6,0,1.2,0,1.8v3.9c.2-.2,.3-.2,.3-.3,1.5-1.6,3.3-2,5.4-1.9,.4,0,.9,.1,1.3,.2,2.4,.7,4,2.6,4.2,5.1,.1,.9,.1,1.8-.2,2.7-.7,2.4-2.3,3.7-4.6,4.2-1.2,.2-2.4,.2-3.6-.2-.9-.3-1.8-.8-2.4-1.5-.1-.1-.2-.2-.3-.2,.1,0,0,0-.1,0h0Zm.1-4.1v.8c-.1,.7,.2,1.2,.8,1.6,1.7,1.2,3.5,1.4,5.5,.7,1.2-.4,1.7-1.4,1.9-2.6v-1c-.1-1.4-.9-2.4-2.2-2.8-.8-.3-1.6-.3-2.5-.2-1.1,.1-2.1,.5-2.9,1.3-.3,.3-.5,.6-.4,1.1-.2,.4-.2,.7-.2,1.1h0Z"/><path d="M371.1,81.6h-11c.1,1.1,.6,1.8,1.5,2.3,.8,.4,1.6,.6,2.4,.6,1.8,.1,3.5-.2,5-1.5,.6,.6,1.2,1.2,1.8,1.9-.5,.5-1.1,.9-1.7,1.2-1.8,.8-3.6,1-5.6,.9-.9-.1-1.8-.2-2.6-.5-3-1.1-4.3-3.6-3.9-6.5,.3-2.6,1.8-4.2,4.2-5,2-.6,4.1-.6,6.1,.1,3.3,1.1,4.2,4.1,3.8,6.5h0Zm-10.9-2.1c2.7,0,5.3,0,7.9-.1-.3-.8-.6-1.4-1.3-1.7-1.8-.9-3.6-.8-5.3,.1-.3,.2-.6,.5-.8,.8-.3,.3-.3,.6-.5,.9Z"/><path d="M216.3,80.9c0,2.7-1.4,4.7-3.9,5.6-2.3,.8-4.6,.8-6.9,0-3-1.1-4.2-3.6-3.9-6.6,.3-2.5,1.8-4,4.1-4.8,2.1-.7,4.2-.7,6.3,0,2.9,.8,4.4,3.1,4.3,5.8h0Zm-7.4,3.5c.9,0,1.7-.1,2.5-.6,1.2-.7,1.8-1.7,1.8-3s-.5-2.4-1.8-3c-1.6-.8-3.3-.8-4.9,0-1.2,.6-1.8,1.7-1.8,3s.5,2.4,1.7,3c.8,.5,1.6,.6,2.5,.6h0Z"/><path d="M371.6,84.8c.5-.7,1-1.3,1.6-1.9,.4,.2,.7,.4,1,.6,1.2,.7,2.5,1,3.9,1,.8,0,1.7,0,2.5-.1,.4,0,.7-.2,1.1-.3,.3-.1,.5-.4,.5-.8s-.2-.6-.5-.7c-.6-.2-1.3-.4-2-.5-1.3-.2-2.6-.3-3.9-.5-.7-.1-1.5-.4-2.1-.8-2.2-1.2-1.8-3.7-.5-4.8,.7-.6,1.6-1,2.5-1.2,2.7-.6,5.4-.3,8,.8,.3,.2,.7,.4,1,.6-.5,.7-1,1.4-1.5,2-.2-.1-.3-.1-.4-.2-2-1.1-4.1-1.2-6.3-.9-.3,.1-.7,.2-.9,.4-.6,.3-.5,1,.1,1.2s1.2,.3,1.9,.4c1.2,.2,2.4,.2,3.6,.4,.8,.1,1.6,.4,2.4,.8,2.4,1.2,2.1,3.9,.5,5.3-.6,.5-1.3,.8-2,1-3.2,.8-6.3,.4-9.2-1.2-.6-.1-.9-.4-1.3-.6h0Z"/><path d="M248.7,84.8l1.6-1.9c.8,.6,1.6,1,2.5,1.3,1.6,.5,3.3,.6,4.9,.3,.4-.1,.7-.2,1-.3,.3-.1,.5-.4,.5-.8s-.2-.6-.5-.7c-.6-.2-1.3-.4-1.9-.5-1.3-.2-2.7-.3-4-.5-.7-.1-1.5-.4-2.1-.8-2.2-1.1-1.8-3.7-.5-4.8,.8-.7,1.7-1,2.6-1.2,2.7-.5,5.3-.3,7.8,.8,.4,.2,.7,.4,1.2,.6l-1.5,2c-.2-.1-.3-.2-.5-.2-2-1.1-4.1-1.2-6.3-.9-.2,0-.4,.1-.5,.2-.6,.2-.9,.5-.8,.8,.1,.5,.4,.7,.8,.7l1.5,.3c1.2,.1,2.4,.2,3.6,.4,.8,.1,1.6,.4,2.4,.8,2.4,1.2,2.1,4,.4,5.3-.9,.7-1.9,1-3,1.2-2.6,.4-5.1,.1-7.5-1-.6-.3-1.2-.7-1.7-1.1h0Z"/><path d="M398.5,76.3l-1.5,2c-.1,0-.2-.1-.2-.1-2-1.2-4.1-1.3-6.4-1-.4,.1-.7,.2-1,.3-.3,.1-.5,.3-.5,.7,0,.3,.2,.6,.5,.6,.6,.2,1.2,.3,1.8,.4,1.2,.2,2.4,.2,3.6,.4,.8,.1,1.6,.4,2.4,.8,2.4,1.2,2.2,4.1,.4,5.3-.9,.7-2,1-3,1.2-2.5,.4-5,.1-7.4-1-.6-.3-1.2-.6-1.8-1.2,.5-.6,1-1.2,1.5-1.9q.1,0,.2,.1c1.1,.8,2.3,1.2,3.6,1.4,1.2,.2,2.4,.2,3.6,0,.4-.1,.8-.2,1.1-.4,.7-.4,.7-1.1,0-1.4-.6-.2-1.3-.4-1.9-.5-1.1-.2-2.3-.2-3.4-.4-.7-.1-1.4-.3-2.1-.6-.3-.1-.6-.3-.9-.4-1.8-1.1-1.6-3.2-.7-4.3,.5-.6,1-.9,1.7-1.2,1-.4,2.1-.6,3.2-.7,2.2-.1,4.2,.2,6.2,1.2,.4,.3,.7,.5,1,.7h0c.1,0,0,0,0,0Z"/><path d="M233.9,75.1h3.2v7c.1,1.3,.9,2.2,2.3,2.4,1.8,.2,3.3-.4,4.4-1.9,.2-.3,.3-.6,.3-1v-6.3c.5-.1,2.4-.2,3.2-.1v11.4h-3.2v-1.8c-.1,.1-.2,.1-.2,.2-1.5,1.8-3.4,2.2-5.6,2.1-.4,0-.8-.1-1.1-.2-1.9-.6-3.1-2.1-3.3-4.2v-7.6h0Z"/><path d="M317.1,86.6c1.8-2,3.4-3.9,5.1-5.8-1.7-1.9-3.3-3.8-5.1-5.7h3.3c.3,0,.5,.1,.8,.4,.9,1,1.7,2,2.6,3,.1,.2,.3,.3,.4,.5,.2-.3,.5-.5,.7-.8,.8-.9,1.6-1.8,2.4-2.7,.1-.1,.3-.3,.5-.3h3.4c-1.7,1.9-3.4,3.8-5.1,5.7,1.7,1.9,3.4,3.8,5.1,5.9h-3.1c-.5,0-.7-.1-1-.5-.8-1-1.7-2-2.5-3-.1-.2-.3-.3-.4-.5-.1,.2-.3,.3-.4,.5-.9,1-1.8,2.1-2.7,3.1-.2,.3-.5,.4-.8,.4h-2.6c-.3-.2-.4-.2-.6-.2h0Z"/><path d="M264.5,72.4h3.3v2.6h4.7v2.4h-4.7v4.8c0,1.4,.7,2.1,2.1,2.1,.5,0,.9-.2,1.4-.3,.2-.1,.4-.2,.7-.3l.7,2.2c-.7,.5-1.5,.8-2.3,1-1,.2-2.1,.3-3.1,0-1.7-.5-2.8-1.8-2.8-3.6v-5.8h-2.1v-2.4h2.1v-2.7h0Z"/><path d="M412.2,83.4c1.3-2.8,2.6-5.5,3.9-8.3h3.4c-.1,.2-.1,.3-.2,.4-1.8,3.5-3.5,7.1-5.3,10.6-.2,.3-.3,.5-.7,.5h-3c-1.9-3.8-3.8-7.7-5.8-11.5h3.5c1.3,2.8,2.6,5.5,3.9,8.3h.3Z"/><path d="M351.4,86.6h-3.2v-11.5h3.2v2.1l.1,.1c1.2-1.7,3-2.4,5-2.4v2.7c-.5,.1-.9,.1-1.4,.2-1.4,.2-2.5,.8-3.3,2-.3,.5-.5,1-.5,1.6v4.6l.1,.6h0Z"/><path d="M400.5,75.1h3.2v11.5h-3.2v-11.5Z"/><path d="M402,73.7c-.3-.1-.7-.2-1.1-.3-.5-.3-.8-.8-.8-1.4s.3-1.1,.8-1.3c.6-.3,1.2-.3,1.9-.2,.8,.2,1.2,.8,1.2,1.5s-.4,1.3-1.2,1.6c-.2,0-.5,0-.8,.1h0Z"/><path class="cls-1" d="M151.29,29.16h-26.71c-19.7,.05-44.05-.04-63.58,0-1.74,0-3.26,1.29-3.73,3.16l-11.7,46.78-.79,3.17-11.7,46.78c-.4,1.59,.67,3.17,2.15,3.17,5.25,.04,16.42-.03,21.74,0h0c20.51-.02,48.25,.02,68.54,0,1.74,0,3.27-1.29,3.73-3.17,6.02-24.1,18.19-72.7,24.19-96.73h0c.4-1.59-.67-3.16-2.15-3.16Zm-81.66,3.16h43.17l-11.7,46.79H57.93l11.7-46.79Zm-12.49,49.95h16.13l-11.7,46.78h-16.13l11.7-46.78Zm59.75,46.78h-42.95l11.7-46.78h42.95l-11.7,46.78Zm12.49-49.95h-15.92l11.7-46.78h15.92l-11.7,46.78Z"/><rect class="cls-1" x="50.9" y="75.1" width="84.72" height="11.17"/><rect class="cls-1" x="61.34" y="29.15" width="84.72" height="11.17"/><rect class="cls-1" x="41" y="121.05" width="84.72" height="11.17"/></g></g></g></svg>