<?xml version="1.0" encoding="UTF-8"?><svg id="_イヤー_1" xmlns="http://www.w3.org/2000/svg" viewBox="0 0 1099.92 842.04"><defs><style>.cls-1{fill:#1c1d1d;}</style></defs><path class="cls-1" d="M1079.54,.03h-243.74v-.03H255.59c-15.87,0-29.79,10.57-34.06,25.85L114.76,408.05l-7.24,25.9L.76,816.11h0c-3.63,13.01,6.15,25.9,19.66,25.9H218.81v.03H844.31c15.87,0,29.8-10.57,34.07-25.86l114-408.1L1099.16,25.88h0c3.63-12.99-6.14-25.85-19.62-25.85ZM334.33,25.85h75.89v.03h318.07l-106.77,382.2h-133.87v-.03H227.56L334.33,25.85Zm-114.01,408.1h147.22l-106.76,382.15H113.56l106.76-382.15Zm545.28,382.18H507.52v.02h-133.87v-.05l106.76-382.12h391.94l-106.76,382.15Zm113.99-408.05h-145.27L841.09,25.88h145.27l-106.77,382.2Z"/></svg>