<?xml version="1.0" encoding="UTF-8"?><svg id="a" xmlns="http://www.w3.org/2000/svg" viewBox="0 0 146.66 112.27"><defs><style>.b{fill:#040000;}.c{fill:none;}</style></defs><polygon class="c" points="10.39 108.82 30.02 108.82 44.25 57.86 24.62 57.86 10.39 108.82"/><polygon class="c" points="94.93 54.41 114.3 54.41 128.54 3.45 109.17 3.45 94.93 54.41"/><g><polygon class="c" points="10.39 108.82 30.02 108.82 44.25 57.86 24.62 57.86 10.39 108.82"/><polygon class="c" points="94.93 54.41 114.3 54.41 128.54 3.45 109.17 3.45 94.93 54.41"/><path class="b" d="M132.48,0h-34.41l-.96,3.45-14.24,50.96H30.34L44.58,3.45h34.68l.96-3.45H34.08c-2.12,0-3.97,1.41-4.54,3.45h0L15.3,54.41l-.96,3.45L.1,108.81h0c-.48,1.73,.82,3.45,2.62,3.45H48.86l.96-3.45,14.23-50.95h52.26l-14.23,50.95h-34.41l-.96,3.45h45.87c2.12,0,3.97-1.41,4.54-3.45l15.2-54.41L146.55,3.45h0c.48-1.73-.82-3.45-2.62-3.45h-11.46ZM34.77,108.81H15.14l14.23-50.95h19.63l-14.23,50.95ZM117.28,54.41h-19.37L112.14,3.45h19.37l-14.24,50.96Z"/></g></svg>