<?xml version="1.0" encoding="UTF-8"?><svg xmlns="http://www.w3.org/2000/svg" viewBox="0 0 403.86 112.41"><g id="a"/><g id="b"><g id="c"><g><path d="M403.86,58.65c-.23,.05-.45,.13-.68,.13-3.24,0-6.48,0-9.72,0h-.71c.14,1.06,.61,1.82,1.48,2.33,.58,.34,1.22,.51,1.88,.58,1.95,.22,3.79,0,5.41-1.23,.06-.05,.13-.08,.24-.14l1.72,1.87c-.55,.51-1.14,.88-1.77,1.18-1.75,.81-3.61,.98-5.51,.86-.9-.06-1.78-.22-2.64-.52-3.03-1.08-4.26-3.62-3.91-6.51,.3-2.56,1.77-4.18,4.2-4.93,2.02-.62,4.06-.63,6.08,.02,1.92,.62,3.22,1.89,3.74,3.87,.08,.3,.13,.61,.2,.92v1.56Zm-3.1-1.99c-.37-1.12-1.05-1.77-2.04-2.08-1.09-.34-2.2-.33-3.31-.09-.59,.13-1.14,.36-1.6,.78-.42,.38-.76,.81-.85,1.4h7.81Z"/><path d="M67.01,112.41l.94-3.41c1.27-.07,2.54-.02,3.82-.03,1.26,0,2.52,0,3.78,0h26.82c4.74-16.95,9.47-33.88,14.22-50.87h-52.23c-5.05,18.08-10.11,36.18-15.18,54.32h-.7c-14.98,0-29.96,0-44.93,0-.42,0-.85,0-1.25-.11-1.47-.39-2.28-1.87-1.87-3.39,.62-2.27,1.26-4.54,1.9-6.81,5.27-18.85,10.53-37.69,15.8-56.54,3.89-13.9,7.77-27.81,11.66-41.71,.65-2.34,2.41-3.67,4.86-3.67,15.06,0,30.12,0,45.17,0,.21,0,.43,0,.72,0l-.97,3.46H44.9c-4.74,16.98-9.48,33.91-14.22,50.9h52.5c5.06-18.09,10.12-36.2,15.19-54.36,.25,0,.46,0,.68,0,14.92,0,29.83,0,44.75,0,.36,0,.73,.01,1.07,.09,1.46,.34,2.37,1.79,2,3.25-.46,1.82-.99,3.62-1.49,5.43-6.83,24.42-13.65,48.85-20.48,73.27-2.48,8.87-4.95,17.73-7.43,26.6-.52,1.86-1.71,3.03-3.59,3.48-.4,.1-.83,.11-1.25,.11-14.98,0-29.96,0-44.93,0h-.68ZM29.69,58.07c-4.74,16.96-9.47,33.88-14.2,50.81,.98,.13,19.18,.08,19.62-.04,4.72-16.9,9.45-33.81,14.19-50.77H29.69ZM112.44,3.69c-4.74,16.95-9.47,33.88-14.21,50.86h19.35c4.74-16.94,9.47-33.87,14.21-50.86h-19.35Z"/><path d="M157.28,63.8h-3.26c-.12-.44-.15-13.87-.03-14.63,.08,0,.18-.03,.27-.03,3.44,0,6.87,0,10.31,.02,1.09,0,2.14,.24,3.13,.71,2.51,1.17,3.06,3.64,2.41,5.67-.44,1.37-1.45,2.22-2.74,2.75-.33,.13-.67,.24-1.06,.38,1.49,1.71,2.93,3.38,4.45,5.12-.26,.02-.41,.04-.56,.04-.98,0-1.96-.01-2.94,0-.35,0-.59-.1-.82-.37-1.16-1.4-2.35-2.77-3.51-4.17-.25-.3-.51-.44-.91-.43-1.38,.02-2.76,0-4.14,0h-.6v4.93Zm0-7.74c.16,.02,.26,.03,.35,.03,2.08,0,4.15,.01,6.23,0,.55,0,1.12-.08,1.66-.21,.94-.24,1.39-.88,1.4-1.84,0-.97-.43-1.61-1.37-1.85-.57-.15-1.18-.21-1.77-.22-1.96-.03-3.91-.01-5.87-.01h-.62v4.11Z"/><path d="M271.77,63.79v-14.62h14.85v2.76c-.74,.03-1.49,.01-2.24,.01-.78,0-1.56,0-2.34,0h-6.92v2.99h9.6v2.83c-.8,.03-1.59,0-2.38,.01-.8,0-1.6,0-2.4,0h-4.82v3.23c1.96,0,3.91,0,5.86,0,1.94,0,3.87,0,5.85,0v2.71c-.42,.13-13.81,.19-15.07,.06Z"/><path d="M262.34,52.59l-2.68,1.09c-.25-.34-.45-.64-.68-.91-1.25-1.54-2.87-1.92-4.74-1.5-.17,.04-.34,.11-.5,.19-.99,.49-1.22,1.48-.53,2.34,.22,.28,.49,.53,.77,.75,2.13,1.66,4.27,3.31,6.4,4.95,.05,.04,.1,.06,.2,.11,.53-.81,.7-1.72,.79-2.65,.4-.14,1.97-.18,2.96-.06-.02,1.62-.56,3.06-1.54,4.44,1.03,.79,2.05,1.58,3.16,2.44-.26,.03-.41,.06-.56,.06-.96,0-1.92-.02-2.88,.01-.47,.01-.86-.07-1.2-.4-.14-.14-.32-.24-.5-.37-.12,.05-.25,.09-.37,.15-1.84,.92-3.81,1.15-5.83,1.01-1.16-.08-2.29-.31-3.37-.77-.86-.36-1.63-.84-2.28-1.52-1.59-1.7-1.46-4.07,.35-5.55,.44-.36,.96-.63,1.48-.97-.1-.12-.2-.26-.32-.39-1.44-1.61-.99-3.79,.43-4.95,.76-.62,1.64-.98,2.6-1.17,1.66-.33,3.3-.27,4.91,.26,1.69,.55,2.95,1.65,3.85,3.16,.03,.05,.04,.11,.08,.25Zm-3.83,8.73c-2.04-1.53-4.02-3.02-5.98-4.49-1.47,.72-1.97,3.07-.15,4.21,.33,.21,.71,.38,1.08,.5,.98,.31,1.99,.4,3.01,.3,.67-.07,1.33-.15,2.04-.51Z"/><path d="M305.23,62.19v5.72c-.47,.14-2.4,.16-3.22,.06v-15.65h3.21v1.69c.15-.12,.21-.15,.25-.2,1.46-1.57,3.31-2.08,5.38-1.95,.47,.03,.96,.12,1.41,.25,2.31,.69,3.66,2.26,4.11,4.6,.2,1.03,.17,2.07-.09,3.09-.54,2.13-1.86,3.55-3.97,4.17-1.79,.53-3.57,.42-5.24-.46-.64-.34-1.2-.85-1.85-1.32Zm4.19-7.66v.04c-.18,0-.36-.01-.54,0-1.25,.11-2.37,.53-3.27,1.44-.25,.26-.39,.52-.37,.9,.03,.64,.06,1.28,0,1.92-.08,.74,.23,1.24,.79,1.61,.41,.27,.84,.55,1.3,.73,1.07,.42,2.18,.47,3.3,.25,1.62-.31,2.55-1.27,2.72-2.9,.19-1.78-.53-3.47-2.8-3.86-.37-.06-.75-.09-1.13-.13Z"/><path d="M191.04,62.17v1.62h-3.14c-.13-.41-.16-14.7-.03-15.44h3.15c.07,.61,.02,1.22,.03,1.83,0,.64,0,1.28,0,1.92v1.94c.18-.16,.26-.21,.32-.28,1.48-1.55,3.33-2.04,5.4-1.89,.44,.03,.87,.12,1.29,.23,2.38,.65,4.01,2.62,4.22,5.11,.08,.92,.06,1.83-.19,2.73-.67,2.38-2.26,3.74-4.65,4.21-1.2,.23-2.39,.15-3.55-.22-.93-.29-1.75-.78-2.43-1.48-.08-.08-.17-.17-.26-.25-.01-.01-.04,0-.16-.04Zm.06-4.12c0,.28,.04,.57,0,.84-.13,.72,.24,1.18,.76,1.56,1.69,1.23,3.53,1.41,5.46,.72,1.16-.42,1.73-1.36,1.86-2.57,.03-.32,.03-.64,.01-.96-.08-1.4-.86-2.4-2.2-2.83-.81-.27-1.65-.29-2.49-.2-1.12,.12-2.12,.53-2.95,1.32-.31,.29-.49,.6-.45,1.05,.03,.36,0,.72,0,1.08Z"/><path d="M341.05,58.79h-11.05c.15,1.08,.63,1.85,1.52,2.35,.75,.42,1.57,.57,2.42,.61,1.83,.1,3.54-.23,5.04-1.47,.59,.64,1.16,1.25,1.75,1.9-.53,.49-1.09,.86-1.71,1.15-1.77,.84-3.64,1.01-5.56,.89-.9-.06-1.78-.22-2.64-.52-3.02-1.07-4.27-3.59-3.93-6.49,.3-2.58,1.79-4.21,4.24-4.96,2.02-.61,4.07-.62,6.08,.05,3.35,1.1,4.19,4.1,3.84,6.48Zm-10.95-2.07c2.72-.03,5.28,.01,7.9-.07-.26-.8-.65-1.41-1.32-1.74-1.79-.87-3.58-.83-5.33,.14-.32,.18-.57,.5-.8,.79-.17,.22-.27,.51-.45,.88Z"/><path d="M186.23,58.1c0,2.67-1.4,4.7-3.91,5.58-2.3,.81-4.64,.82-6.94,0-2.99-1.06-4.25-3.62-3.87-6.59,.32-2.48,1.8-4.04,4.14-4.79,2.09-.67,4.22-.66,6.32-.02,2.83,.86,4.34,3.1,4.26,5.81Zm-7.39,3.52c.86-.03,1.71-.14,2.49-.55,1.22-.65,1.77-1.69,1.76-3.04,0-1.35-.54-2.43-1.8-3.01-1.63-.75-3.3-.75-4.93,.01-1.25,.59-1.77,1.69-1.77,3.03,0,1.31,.54,2.36,1.74,2.99,.78,.41,1.62,.53,2.5,.56Z"/><path d="M341.53,61.98c.55-.67,1.05-1.28,1.57-1.91,.36,.22,.67,.44,1,.62,1.21,.67,2.54,.98,3.9,1.04,.83,.04,1.68-.02,2.51-.1,.37-.03,.73-.19,1.08-.34,.31-.13,.52-.39,.52-.75,0-.36-.22-.63-.54-.72-.65-.19-1.31-.37-1.97-.46-1.3-.19-2.62-.27-3.92-.51-.73-.13-1.47-.41-2.13-.76-2.23-1.17-1.79-3.72-.47-4.82,.74-.62,1.6-.97,2.53-1.16,2.74-.57,5.4-.34,7.96,.85,.34,.16,.66,.36,1.05,.57-.51,.7-.99,1.36-1.49,2.04-.16-.08-.28-.13-.4-.2-2-1.11-4.14-1.25-6.34-.89-.33,.05-.66,.19-.94,.36-.56,.34-.54,.97,.07,1.21,.59,.23,1.23,.34,1.86,.42,1.21,.15,2.43,.22,3.63,.38,.83,.11,1.63,.38,2.38,.78,2.37,1.24,2.14,3.95,.47,5.26-.61,.48-1.29,.81-2.03,.99-3.22,.76-6.31,.42-9.23-1.18-.36-.2-.68-.47-1.06-.72Z"/><path d="M218.63,61.96l1.56-1.9c.8,.59,1.62,1.01,2.53,1.27,1.62,.46,3.26,.57,4.92,.3,.35-.05,.69-.19,1.02-.33,.3-.14,.51-.38,.51-.75,0-.37-.22-.62-.54-.72-.63-.19-1.26-.36-1.91-.46-1.32-.19-2.66-.27-3.98-.51-.73-.13-1.47-.41-2.13-.76-2.17-1.13-1.82-3.65-.51-4.78,.77-.66,1.67-1.02,2.64-1.22,2.68-.54,5.29-.32,7.79,.81,.38,.17,.73,.39,1.16,.62l-1.49,2.04c-.18-.09-.32-.15-.46-.23-1.99-1.08-4.11-1.21-6.29-.86-.18,.03-.35,.09-.52,.15-.55,.2-.85,.51-.81,.85,.06,.48,.44,.65,.84,.74,.5,.12,1.02,.2,1.53,.26,1.19,.13,2.39,.21,3.57,.37,.83,.11,1.63,.39,2.38,.78,2.36,1.21,2.15,4.01,.42,5.3-.91,.68-1.94,1.02-3.04,1.18-2.59,.37-5.1,.07-7.49-1.04-.61-.29-1.19-.63-1.72-1.12Z"/><path d="M368.47,53.55l-1.47,2.01c-.11-.03-.18-.05-.25-.08-2-1.17-4.15-1.34-6.38-1.01-.35,.05-.69,.2-1.01,.34-.27,.12-.46,.35-.45,.66,0,.31,.21,.55,.49,.62,.59,.16,1.2,.31,1.81,.38,1.21,.15,2.43,.22,3.63,.38,.83,.11,1.63,.39,2.38,.77,2.39,1.22,2.16,4.05,.41,5.33-.91,.67-1.95,1.01-3.05,1.16-2.55,.36-5.02,.07-7.38-1.02-.63-.29-1.23-.64-1.79-1.15,.53-.64,1.03-1.25,1.54-1.87,.08,.03,.14,.04,.19,.07,1.06,.81,2.28,1.23,3.58,1.44,1.21,.2,2.43,.25,3.64,.03,.39-.07,.79-.18,1.13-.37,.68-.38,.67-1.13-.05-1.43-.6-.25-1.26-.38-1.9-.47-1.13-.16-2.27-.21-3.39-.39-.7-.11-1.39-.35-2.08-.56-.3-.09-.58-.26-.86-.43-1.81-1.1-1.57-3.2-.7-4.27,.45-.55,1.03-.93,1.69-1.21,1.03-.44,2.11-.59,3.21-.67,2.16-.14,4.22,.24,6.17,1.19,.28,.14,.55,.31,.9,.51Z"/><path d="M203.81,52.3h3.25v.67c0,1.8,0,3.6,0,5.39,0,.3,0,.6,.03,.9,.12,1.34,.95,2.22,2.28,2.37,1.82,.2,3.29-.41,4.38-1.91,.22-.3,.32-.61,.32-1-.02-1.9,0-3.8,0-5.69v-.64c.46-.14,2.39-.16,3.21-.05v11.45h-3.22v-1.78c-.13,.09-.18,.11-.22,.15-1.47,1.77-3.42,2.24-5.6,2.05-.38-.03-.75-.11-1.11-.22-1.87-.56-3.1-2.12-3.28-4.15-.03-.32-.04-.64-.04-.96,0-1.96,0-3.92,0-5.87v-.71Z"/><path d="M287.02,63.76c1.75-1.96,3.43-3.86,5.13-5.76-1.69-1.89-3.34-3.75-5.07-5.69,.24-.02,.38-.04,.51-.04,.92,0,1.84,.01,2.76,0,.33,0,.55,.1,.77,.36,.85,1.01,1.72,2,2.58,3,.13,.15,.26,.29,.43,.48,.25-.29,.47-.54,.69-.8,.78-.91,1.56-1.82,2.36-2.72,.12-.14,.31-.29,.48-.29,1.08-.03,2.15-.01,3.38-.01-1.72,1.94-3.38,3.76-5.08,5.66,1.7,1.93,3.39,3.85,5.15,5.86-.29,.02-.46,.03-.64,.03-.84,0-1.68-.03-2.52,.01-.45,.02-.73-.14-1.01-.48-.82-1-1.68-1.98-2.53-2.97-.13-.15-.27-.29-.44-.48-.15,.17-.29,.31-.42,.46-.89,1.03-1.79,2.05-2.67,3.08-.22,.27-.46,.39-.81,.38-.86-.02-1.72,0-2.58-.01-.14,0-.28-.03-.5-.06Z"/><path d="M234.44,49.6h3.26v2.65h4.74v2.44h-4.69c-.02,.22-.05,.37-.05,.53,0,1.42,0,2.84,0,4.26,0,1.4,.73,2.11,2.14,2.05,.47-.02,.93-.18,1.4-.3,.21-.05,.4-.16,.68-.27l.67,2.18c-.71,.51-1.47,.78-2.28,.96-1.03,.23-2.06,.26-3.08-.03-1.74-.49-2.76-1.8-2.77-3.61-.01-1.68,0-3.36,0-5.04v-.71h-2.11v-2.43h2.09v-2.67Z"/><path d="M382.09,60.58c1.31-2.75,2.62-5.51,3.94-8.28h3.41c-.07,.17-.11,.32-.18,.45-1.77,3.54-3.54,7.07-5.3,10.62-.16,.32-.34,.48-.72,.47-.98-.03-1.96,0-2.95,0-1.93-3.84-3.84-7.65-5.79-11.52h3.52c1.31,2.76,2.62,5.51,3.93,8.27h.14Z"/><path d="M321.35,63.79h-3.22v-11.48h3.2v2.05l.11,.07c1.25-1.72,2.98-2.38,5.05-2.4v2.74c-.47,.06-.93,.09-1.38,.16-1.35,.23-2.51,.79-3.3,1.97-.32,.47-.49,.98-.48,1.57,.03,1.54,0,3.08,0,4.62,0,.22,0,.43,0,.7Z"/><path d="M370.43,52.3h3.17v11.48h-3.17v-11.48Z"/><path d="M371.89,50.92c-.31-.1-.73-.16-1.09-.35-.53-.28-.8-.76-.78-1.38,.02-.61,.31-1.06,.84-1.35,.59-.32,1.23-.33,1.86-.16,.75,.21,1.2,.8,1.22,1.52,.02,.71-.43,1.31-1.17,1.55-.24,.08-.5,.1-.87,.16Z"/></g></g></g></svg>