<?xml version="1.0" encoding="utf-8"?>
<!-- Generator: Adobe Illustrator 26.3.1, SVG Export Plug-In . SVG Version: 6.00 Build 0)  -->
<svg version="1.1" id="レイヤー_1" xmlns="http://www.w3.org/2000/svg" xmlns:xlink="http://www.w3.org/1999/xlink" x="0px"
	 y="0px" viewBox="0 0 403.9 112.4" style="enable-background:new 0 0 403.9 112.4;" xml:space="preserve">
<style type="text/css">
	.st0{fill:#1C1D1D;}
</style>
<g id="a">
</g>
<g id="b">
	<g id="c">
		<g>
			<path d="M403.9,58.7c-0.2,0-0.5,0.1-0.7,0.1c-3.2,0-6.5,0-9.7,0h-0.7c0.1,1.1,0.6,1.8,1.5,2.3c0.6,0.3,1.2,0.5,1.9,0.6
				c2,0.2,3.8,0,5.4-1.2c0.1,0,0.1-0.1,0.2-0.1l1.7,1.9c-0.5,0.5-1.1,0.9-1.8,1.2c-1.8,0.8-3.6,1-5.5,0.9c-0.9-0.1-1.8-0.2-2.6-0.5
				c-3-1.1-4.3-3.6-3.9-6.5c0.3-2.6,1.8-4.2,4.2-4.9c2-0.6,4.1-0.6,6.1,0c1.9,0.6,3.2,1.9,3.7,3.9c0.1,0.3,0.1,0.6,0.2,0.9
				L403.9,58.7L403.9,58.7z M400.8,56.7c-0.4-1.1-1-1.8-2-2.1c-1.1-0.3-2.2-0.3-3.3-0.1c-0.6,0.1-1.1,0.4-1.6,0.8
				c-0.4,0.4-0.8,0.8-0.9,1.4L400.8,56.7L400.8,56.7z"/>
			<path d="M157.3,63.8H154c-0.1-0.4-0.1-13.9,0-14.6c0.1,0,0.2,0,0.3,0c3.4,0,6.9,0,10.3,0c1.1,0,2.1,0.2,3.1,0.7
				c2.5,1.2,3.1,3.6,2.4,5.7c-0.4,1.4-1.4,2.2-2.7,2.8c-0.3,0.1-0.7,0.2-1.1,0.4c1.5,1.7,2.9,3.4,4.4,5.1c-0.3,0-0.4,0-0.6,0
				c-1,0-2,0-2.9,0c-0.4,0-0.6-0.1-0.8-0.4c-1.2-1.4-2.4-2.8-3.5-4.2c-0.2-0.3-0.5-0.4-0.9-0.4c-1.4,0-2.8,0-4.1,0h-0.6V63.8
				L157.3,63.8z M157.3,56.1c0.2,0,0.3,0,0.4,0c2.1,0,4.1,0,6.2,0c0.6,0,1.1-0.1,1.7-0.2c0.9-0.2,1.4-0.9,1.4-1.8
				c0-1-0.4-1.6-1.4-1.8c-0.6-0.2-1.2-0.2-1.8-0.2c-2,0-3.9,0-5.9,0h-0.6L157.3,56.1L157.3,56.1z"/>
			<path d="M271.8,63.8V49.2h14.9v2.8c-0.7,0-1.5,0-2.2,0c-0.8,0-1.6,0-2.3,0h-6.9v3h9.6v2.8c-0.8,0-1.6,0-2.4,0c-0.8,0-1.6,0-2.4,0
				h-4.8V61c2,0,3.9,0,5.9,0c1.9,0,3.9,0,5.9,0v2.7C286.4,63.8,273,63.9,271.8,63.8L271.8,63.8z"/>
			<path d="M262.3,52.6l-2.7,1.1c-0.2-0.3-0.5-0.6-0.7-0.9c-1.2-1.5-2.9-1.9-4.7-1.5c-0.2,0-0.3,0.1-0.5,0.2c-1,0.5-1.2,1.5-0.5,2.3
				c0.2,0.3,0.5,0.5,0.8,0.8c2.1,1.7,4.3,3.3,6.4,5c0,0,0.1,0.1,0.2,0.1c0.5-0.8,0.7-1.7,0.8-2.7c0.4-0.1,2-0.2,3-0.1
				c0,1.6-0.6,3.1-1.5,4.4c1,0.8,2,1.6,3.2,2.4c-0.3,0-0.4,0.1-0.6,0.1c-1,0-1.9,0-2.9,0c-0.5,0-0.9-0.1-1.2-0.4
				c-0.1-0.1-0.3-0.2-0.5-0.4c-0.1,0-0.2,0.1-0.4,0.2c-1.8,0.9-3.8,1.2-5.8,1c-1.2-0.1-2.3-0.3-3.4-0.8c-0.9-0.4-1.6-0.8-2.3-1.5
				c-1.6-1.7-1.5-4.1,0.4-5.5c0.4-0.4,1-0.6,1.5-1c-0.1-0.1-0.2-0.3-0.3-0.4c-1.4-1.6-1-3.8,0.4-5c0.8-0.6,1.6-1,2.6-1.2
				c1.7-0.3,3.3-0.3,4.9,0.3c1.7,0.5,3,1.7,3.9,3.2C262.3,52.4,262.3,52.4,262.3,52.6z M258.5,61.3c-2-1.5-4-3-6-4.5
				c-1.5,0.7-2,3.1-0.1,4.2c0.3,0.2,0.7,0.4,1.1,0.5c1,0.3,2,0.4,3,0.3C257.1,61.8,257.8,61.7,258.5,61.3L258.5,61.3z"/>
			<path d="M305.2,62.2v5.7c-0.5,0.1-2.4,0.2-3.2,0.1V52.3h3.2V54c0.1-0.1,0.2-0.2,0.2-0.2c1.5-1.6,3.3-2.1,5.4-2
				c0.5,0,1,0.1,1.4,0.2c2.3,0.7,3.7,2.3,4.1,4.6c0.2,1,0.2,2.1-0.1,3.1c-0.5,2.1-1.9,3.5-4,4.2c-1.8,0.5-3.6,0.4-5.2-0.5
				C306.4,63.2,305.9,62.7,305.2,62.2L305.2,62.2z M309.4,54.5L309.4,54.5c-0.2,0-0.4,0-0.5,0c-1.2,0.1-2.4,0.5-3.3,1.4
				c-0.2,0.3-0.4,0.5-0.4,0.9c0,0.6,0.1,1.3,0,1.9c-0.1,0.7,0.2,1.2,0.8,1.6c0.4,0.3,0.8,0.5,1.3,0.7c1.1,0.4,2.2,0.5,3.3,0.2
				c1.6-0.3,2.5-1.3,2.7-2.9c0.2-1.8-0.5-3.5-2.8-3.9C310.2,54.6,309.8,54.6,309.4,54.5z"/>
			<path d="M191,62.2v1.6h-3.1c-0.1-0.4-0.2-14.7,0-15.4h3.1c0.1,0.6,0,1.2,0,1.8c0,0.6,0,1.3,0,1.9V54c0.2-0.2,0.3-0.2,0.3-0.3
				c1.5-1.5,3.3-2,5.4-1.9c0.4,0,0.9,0.1,1.3,0.2c2.4,0.7,4,2.6,4.2,5.1c0.1,0.9,0.1,1.8-0.2,2.7c-0.7,2.4-2.3,3.7-4.6,4.2
				c-1.2,0.2-2.4,0.2-3.6-0.2c-0.9-0.3-1.8-0.8-2.4-1.5c-0.1-0.1-0.2-0.2-0.3-0.2C191.2,62.2,191.2,62.2,191,62.2L191,62.2z
				 M191.1,58c0,0.3,0,0.6,0,0.8c-0.1,0.7,0.2,1.2,0.8,1.6c1.7,1.2,3.5,1.4,5.5,0.7c1.2-0.4,1.7-1.4,1.9-2.6c0-0.3,0-0.6,0-1
				c-0.1-1.4-0.9-2.4-2.2-2.8c-0.8-0.3-1.6-0.3-2.5-0.2c-1.1,0.1-2.1,0.5-2.9,1.3c-0.3,0.3-0.5,0.6-0.4,1
				C191.1,57.3,191.1,57.7,191.1,58L191.1,58z"/>
			<path d="M341,58.8h-11c0.1,1.1,0.6,1.8,1.5,2.3c0.8,0.4,1.6,0.6,2.4,0.6c1.8,0.1,3.5-0.2,5-1.5c0.6,0.6,1.2,1.2,1.8,1.9
				c-0.5,0.5-1.1,0.9-1.7,1.2c-1.8,0.8-3.6,1-5.6,0.9c-0.9-0.1-1.8-0.2-2.6-0.5c-3-1.1-4.3-3.6-3.9-6.5c0.3-2.6,1.8-4.2,4.2-5
				c2-0.6,4.1-0.6,6.1,0C340.6,53.4,341.4,56.4,341,58.8L341,58.8z M330.1,56.7c2.7,0,5.3,0,7.9-0.1c-0.3-0.8-0.6-1.4-1.3-1.7
				c-1.8-0.9-3.6-0.8-5.3,0.1c-0.3,0.2-0.6,0.5-0.8,0.8C330.4,56.1,330.3,56.3,330.1,56.7z"/>
			<path d="M186.2,58.1c0,2.7-1.4,4.7-3.9,5.6c-2.3,0.8-4.6,0.8-6.9,0c-3-1.1-4.2-3.6-3.9-6.6c0.3-2.5,1.8-4,4.1-4.8
				c2.1-0.7,4.2-0.7,6.3,0C184.8,53.1,186.3,55.4,186.2,58.1L186.2,58.1z M178.8,61.6c0.9,0,1.7-0.1,2.5-0.5c1.2-0.7,1.8-1.7,1.8-3
				c0-1.3-0.5-2.4-1.8-3c-1.6-0.8-3.3-0.8-4.9,0c-1.2,0.6-1.8,1.7-1.8,3c0,1.3,0.5,2.4,1.7,3C177.1,61.5,177.9,61.6,178.8,61.6
				L178.8,61.6z"/>
			<path d="M341.5,62c0.5-0.7,1-1.3,1.6-1.9c0.4,0.2,0.7,0.4,1,0.6c1.2,0.7,2.5,1,3.9,1c0.8,0,1.7,0,2.5-0.1c0.4,0,0.7-0.2,1.1-0.3
				c0.3-0.1,0.5-0.4,0.5-0.8s-0.2-0.6-0.5-0.7c-0.6-0.2-1.3-0.4-2-0.5c-1.3-0.2-2.6-0.3-3.9-0.5c-0.7-0.1-1.5-0.4-2.1-0.8
				c-2.2-1.2-1.8-3.7-0.5-4.8c0.7-0.6,1.6-1,2.5-1.2c2.7-0.6,5.4-0.3,8,0.8c0.3,0.2,0.7,0.4,1,0.6c-0.5,0.7-1,1.4-1.5,2
				c-0.2-0.1-0.3-0.1-0.4-0.2c-2-1.1-4.1-1.2-6.3-0.9c-0.3,0-0.7,0.2-0.9,0.4c-0.6,0.3-0.5,1,0.1,1.2c0.6,0.2,1.2,0.3,1.9,0.4
				c1.2,0.2,2.4,0.2,3.6,0.4c0.8,0.1,1.6,0.4,2.4,0.8c2.4,1.2,2.1,4,0.5,5.3c-0.6,0.5-1.3,0.8-2,1c-3.2,0.8-6.3,0.4-9.2-1.2
				C342.2,62.5,341.9,62.2,341.5,62L341.5,62z"/>
			<path d="M218.6,62l1.6-1.9c0.8,0.6,1.6,1,2.5,1.3c1.6,0.5,3.3,0.6,4.9,0.3c0.4,0,0.7-0.2,1-0.3c0.3-0.1,0.5-0.4,0.5-0.8
				s-0.2-0.6-0.5-0.7c-0.6-0.2-1.3-0.4-1.9-0.5c-1.3-0.2-2.7-0.3-4-0.5c-0.7-0.1-1.5-0.4-2.1-0.8c-2.2-1.1-1.8-3.7-0.5-4.8
				c0.8-0.7,1.7-1,2.6-1.2c2.7-0.5,5.3-0.3,7.8,0.8c0.4,0.2,0.7,0.4,1.2,0.6l-1.5,2c-0.2-0.1-0.3-0.2-0.5-0.2
				c-2-1.1-4.1-1.2-6.3-0.9c-0.2,0-0.4,0.1-0.5,0.2c-0.6,0.2-0.9,0.5-0.8,0.8c0.1,0.5,0.4,0.7,0.8,0.7c0.5,0.1,1,0.2,1.5,0.3
				c1.2,0.1,2.4,0.2,3.6,0.4c0.8,0.1,1.6,0.4,2.4,0.8c2.4,1.2,2.1,4,0.4,5.3c-0.9,0.7-1.9,1-3,1.2c-2.6,0.4-5.1,0.1-7.5-1
				C219.7,62.8,219.1,62.4,218.6,62L218.6,62z"/>
			<path d="M368.5,53.5l-1.5,2c-0.1,0-0.2,0-0.2-0.1c-2-1.2-4.1-1.3-6.4-1c-0.4,0-0.7,0.2-1,0.3c-0.3,0.1-0.5,0.3-0.5,0.7
				c0,0.3,0.2,0.5,0.5,0.6c0.6,0.2,1.2,0.3,1.8,0.4c1.2,0.2,2.4,0.2,3.6,0.4c0.8,0.1,1.6,0.4,2.4,0.8c2.4,1.2,2.2,4,0.4,5.3
				c-0.9,0.7-2,1-3,1.2c-2.5,0.4-5,0.1-7.4-1c-0.6-0.3-1.2-0.6-1.8-1.2c0.5-0.6,1-1.2,1.5-1.9c0.1,0,0.1,0,0.2,0.1
				c1.1,0.8,2.3,1.2,3.6,1.4c1.2,0.2,2.4,0.2,3.6,0c0.4-0.1,0.8-0.2,1.1-0.4c0.7-0.4,0.7-1.1,0-1.4c-0.6-0.2-1.3-0.4-1.9-0.5
				c-1.1-0.2-2.3-0.2-3.4-0.4c-0.7-0.1-1.4-0.3-2.1-0.6c-0.3-0.1-0.6-0.3-0.9-0.4c-1.8-1.1-1.6-3.2-0.7-4.3c0.5-0.5,1-0.9,1.7-1.2
				c1-0.4,2.1-0.6,3.2-0.7c2.2-0.1,4.2,0.2,6.2,1.2C367.9,53.1,368.1,53.3,368.5,53.5L368.5,53.5z"/>
			<path d="M203.8,52.3h3.2V53c0,1.8,0,3.6,0,5.4c0,0.3,0,0.6,0,0.9c0.1,1.3,0.9,2.2,2.3,2.4c1.8,0.2,3.3-0.4,4.4-1.9
				c0.2-0.3,0.3-0.6,0.3-1c0-1.9,0-3.8,0-5.7v-0.6c0.5-0.1,2.4-0.2,3.2,0v11.5h-3.2V62c-0.1,0.1-0.2,0.1-0.2,0.2
				c-1.5,1.8-3.4,2.2-5.6,2.1c-0.4,0-0.8-0.1-1.1-0.2c-1.9-0.6-3.1-2.1-3.3-4.2c0-0.3,0-0.6,0-1c0-2,0-3.9,0-5.9L203.8,52.3
				L203.8,52.3z"/>
			<path d="M287,63.8c1.8-2,3.4-3.9,5.1-5.8c-1.7-1.9-3.3-3.8-5.1-5.7c0.2,0,0.4,0,0.5,0c0.9,0,1.8,0,2.8,0c0.3,0,0.5,0.1,0.8,0.4
				c0.9,1,1.7,2,2.6,3c0.1,0.2,0.3,0.3,0.4,0.5c0.2-0.3,0.5-0.5,0.7-0.8c0.8-0.9,1.6-1.8,2.4-2.7c0.1-0.1,0.3-0.3,0.5-0.3
				c1.1,0,2.1,0,3.4,0c-1.7,1.9-3.4,3.8-5.1,5.7c1.7,1.9,3.4,3.8,5.1,5.9c-0.3,0-0.5,0-0.6,0c-0.8,0-1.7,0-2.5,0
				c-0.5,0-0.7-0.1-1-0.5c-0.8-1-1.7-2-2.5-3c-0.1-0.2-0.3-0.3-0.4-0.5c-0.1,0.2-0.3,0.3-0.4,0.5c-0.9,1-1.8,2-2.7,3.1
				c-0.2,0.3-0.5,0.4-0.8,0.4c-0.9,0-1.7,0-2.6,0C287.3,63.8,287.2,63.8,287,63.8L287,63.8z"/>
			<path d="M234.4,49.6h3.3v2.7h4.7v2.4h-4.7c0,0.2-0.1,0.4-0.1,0.5c0,1.4,0,2.8,0,4.3c0,1.4,0.7,2.1,2.1,2c0.5,0,0.9-0.2,1.4-0.3
				c0.2,0,0.4-0.2,0.7-0.3l0.7,2.2c-0.7,0.5-1.5,0.8-2.3,1c-1,0.2-2.1,0.3-3.1,0c-1.7-0.5-2.8-1.8-2.8-3.6c0-1.7,0-3.4,0-5v-0.7
				h-2.1v-2.4h2.1L234.4,49.6L234.4,49.6z"/>
			<path d="M382.1,60.6c1.3-2.8,2.6-5.5,3.9-8.3h3.4c-0.1,0.2-0.1,0.3-0.2,0.5c-1.8,3.5-3.5,7.1-5.3,10.6c-0.2,0.3-0.3,0.5-0.7,0.5
				c-1,0-2,0-3,0c-1.9-3.8-3.8-7.7-5.8-11.5h3.5c1.3,2.8,2.6,5.5,3.9,8.3L382.1,60.6L382.1,60.6z"/>
			<path d="M321.4,63.8h-3.2V52.3h3.2v2l0.1,0.1c1.2-1.7,3-2.4,5-2.4v2.7c-0.5,0.1-0.9,0.1-1.4,0.2c-1.4,0.2-2.5,0.8-3.3,2
				c-0.3,0.5-0.5,1-0.5,1.6c0,1.5,0,3.1,0,4.6C321.3,63.3,321.3,63.5,321.4,63.8L321.4,63.8z"/>
			<path d="M370.4,52.3h3.2v11.5h-3.2V52.3z"/>
			<path d="M371.9,50.9c-0.3-0.1-0.7-0.2-1.1-0.3c-0.5-0.3-0.8-0.8-0.8-1.4c0-0.6,0.3-1.1,0.8-1.3c0.6-0.3,1.2-0.3,1.9-0.2
				c0.8,0.2,1.2,0.8,1.2,1.5c0,0.7-0.4,1.3-1.2,1.5C372.5,50.8,372.3,50.8,371.9,50.9L371.9,50.9z"/>
			<path class="st0" d="M144.1,0.7h-11.3h-19.2h-1.7v0H81H66.1H55.7h-9.1H35.3c-2.1,0-3.9,1.4-4.5,3.4L16.7,54.6l-1,3.4L1.7,108.5
				l0,0c-0.5,1.7,0.8,3.4,2.6,3.4h11.3h14.8v0h37.2h19h15H113c2.1,0,3.9-1.4,4.5-3.4l15-53.9l14.1-50.5h0
				C147.2,2.4,145.9,0.7,144.1,0.7z M45.7,4.2h10v0h42L83.6,54.6H66l0,0H31.6L45.7,4.2z M30.7,58h19.4L36,108.5H16.6L30.7,58z
				 M102.6,108.5H68.6l0,0H50.9l0,0L65,58h17.7h34.1L102.6,108.5z M117.7,54.6H98.5l14.1-50.5h19.2L117.7,54.6z"/>
		</g>
	</g>
</g>
</svg>
