<?xml version="1.0" encoding="UTF-8"?><svg id="_イヤー_1" xmlns="http://www.w3.org/2000/svg" viewBox="0 0 1555.7 436.59"><defs><style>.cls-1{fill:#1c1d1d;}</style></defs><g id="b"><g id="c"><g><path d="M1555.7,226.2c-.8,0-2,.4-2.8,.4h-41.2c.4,4.4,2.4,7.1,5.9,9.1,2.4,1.2,4.8,2,7.5,2.4,7.9,.8,15,0,21.4-4.8,.4,0,.4-.4,.8-.4l6.7,7.5c-2,2-4.4,3.6-7.1,4.8-7.1,3.2-14.3,4-21.8,3.6-3.6-.4-7.1-.8-10.3-2-11.9-4.4-17-14.3-15.4-25.7,1.2-10.3,7.1-16.6,16.6-19.4,7.9-2.4,16.2-2.4,24.2,0,7.5,2.4,12.7,7.5,14.7,15.4,.4,1.2,.4,2.4,.8,3.6v5.5h0Zm-12.2-7.9c-1.6-4.4-4-7.1-7.9-8.3-4.4-1.2-8.7-1.2-13.1-.4-2.4,.4-4.4,1.6-6.3,3.2-1.6,1.6-3.2,3.2-3.6,5.5h30.9Z"/><path d="M579.2,246.4h-13.1c-.4-1.6-.4-55,0-57.8h42c4.4,0,8.3,.8,12.3,2.8,9.9,4.8,12.3,14.3,9.5,22.6-1.6,5.5-5.5,8.7-10.7,11.1-1.2,.4-2.8,.8-4.4,1.6,5.9,6.7,11.5,13.5,17.4,20.2h-13.9c-1.6,0-2.4-.4-3.2-1.6-4.8-5.5-9.5-11.1-13.9-16.6-.8-1.2-2-1.6-3.6-1.6h-18.6l.2,19.3h0Zm0-30.5h26.2c2.4,0,4.4-.4,6.7-.8,3.6-.8,5.5-3.6,5.5-7.1,0-4-1.6-6.3-5.5-7.1-2.4-.8-4.8-.8-7.1-.8h-25.8v15.8h0Z"/><path d="M1032.6,246.4v-57.8h59v11.1h-45.1v11.8h38v11.1h-38v12.7h46.8v10.7c-2.9,.4-55.9,.8-60.7,.4h0Z"/><path d="M995,202l-10.7,4.4c-.8-1.2-2-2.4-2.8-3.6-4.8-5.9-11.5-7.5-18.6-5.9-.8,0-1.2,.4-2,.8-4,2-4.8,5.9-2,9.1,.8,1.2,2,2,3.2,3.2,8.3,6.7,17,13.1,25.3,19.8,0,0,.4,.4,.8,.4,2-3.2,2.8-6.7,3.2-10.7,1.6-.4,7.9-.8,11.9-.4,0,6.3-2.4,12.3-5.9,17.4,4,3.2,7.9,6.3,12.7,9.5-1.2,0-1.6,.4-2.4,.4h-11.5c-2,0-3.6-.4-4.8-1.6-.4-.4-1.2-.8-2-1.6-.4,0-.8,.4-1.6,.8-7.1,3.6-15,4.8-23,4-4.8-.4-9.1-1.2-13.5-3.2-3.6-1.6-6.3-3.2-9.1-5.9-6.3-6.7-5.9-16.2,1.6-21.8,1.6-1.6,4-2.4,5.9-4-.4-.4-.8-1.2-1.2-1.6-5.5-6.3-4-15,1.6-19.8,3.2-2.4,6.3-4,10.3-4.8,6.7-1.2,13.1-1.2,19.4,1.2,6.7,2,11.9,6.7,15.4,12.7q-.2,.5-.2,1.2Zm-15,34.5c-7.9-5.9-15.8-11.9-23.8-17.8-5.9,2.8-7.9,12.3-.4,16.6,1.2,.8,2.8,1.6,4.4,2,4,1.2,7.9,1.6,11.9,1.2,2.3,0,5.1-.4,7.9-2h0Z"/><path d="M1164.9,240.1v22.6c-2,.4-9.5,.8-12.7,.4v-62.2h12.7v6.7l.8-.8c5.9-6.3,13.1-8.3,21.4-7.9,2,0,4,.4,5.5,.8,9.1,2.8,14.7,9.1,16.2,18.2,.8,4,.8,8.3-.4,12.3-2,8.3-7.5,13.9-15.8,16.6-7.1,2-14.3,1.6-20.6-2-2.4-.8-4.3-2.8-7.1-4.7h0Zm16.6-30.5h-2c-4.8,.4-9.5,2-13.1,5.5-.8,1.2-1.6,2-1.6,3.6,0,2.4,.4,5.1,0,7.5-.4,2.8,.8,4.8,3.2,6.3,1.6,1.2,3.2,2,5.1,2.8,4.4,1.6,8.7,2,13.1,.8,6.3-1.2,9.9-5.1,10.7-11.5,.8-7.1-2-13.9-11.1-15.4-1.1,.8-2.7,.8-4.3,.4Z"/><path d="M712.7,240.1v6.3h-12.3c-.4-1.6-.8-58.2,0-61h12.3c.4,2.4,0,4.8,0,7.1v15c.8-.8,1.2-.8,1.2-1.2,5.9-5.9,13.1-7.9,21.4-7.5,1.6,0,3.6,.4,5.1,.8,9.5,2.8,15.8,10.3,16.6,20.2,.4,3.6,.4,7.1-.8,10.7-2.8,9.5-9.1,14.7-18.2,16.6-4.8,.8-9.5,.8-14.3-.8-3.6-1.2-7.1-3.2-9.5-5.9-.4-.4-.8-.8-1.2-.8q.5,.5-.3,.5h0Zm.4-16.7v3.2c-.4,2.8,.8,4.8,3.2,6.3,6.7,4.8,13.9,5.5,21.8,2.8,4.8-1.6,6.7-5.5,7.5-10.3v-4c-.4-5.5-3.6-9.5-8.7-11.1-3.2-1.2-6.3-1.2-9.9-.8-4.4,.4-8.3,2-11.5,5.1-1.2,1.2-2,2.4-1.6,4-.8,2.1-.8,3.6-.8,4.8h0Z"/><path d="M1306.7,226.6h-43.6c.4,4.4,2.4,7.1,5.9,9.1,3.2,1.6,6.3,2.4,9.5,2.4,7.1,.4,13.9-.8,19.8-5.9,2.4,2.4,4.8,4.8,7.1,7.5-2,2-4.4,3.6-6.7,4.8-7.1,3.2-14.3,4-22.2,3.6-3.6-.4-7.1-.8-10.3-2-11.9-4.4-17-14.3-15.4-25.7,1.2-10.3,7.1-16.6,16.6-19.8,7.9-2.4,16.2-2.4,24.2,0,13.5,4.6,16.6,16.5,15.1,26h0Zm-43.2-8.3c10.7,0,21,0,31.3-.4-1.2-3.2-2.4-5.5-5.1-6.7-7.1-3.6-14.3-3.2-21,.4-1.2,.8-2.4,2-3.2,3.2-.8,1.1-1.2,1.9-2,3.5Z"/><path d="M693.7,223.8c0,10.7-5.5,18.6-15.4,22.2-9.1,3.2-18.2,3.2-27.3,0-11.9-4.4-16.6-14.3-15.4-26.1,1.2-9.9,7.1-15.8,16.2-19,8.3-2.8,16.6-2.8,24.9,0,11.4,3.1,17.3,12.2,17,22.9h0Zm-29.4,13.9c3.6,0,6.7-.4,9.9-2,4.8-2.8,7.1-6.7,7.1-11.9s-2-9.5-7.1-11.9c-6.3-3.2-13.1-3.2-19.4,0-4.8,2.4-7.1,6.7-7.1,11.9s2,9.5,6.7,11.9c3.2,1.6,6.4,2,9.9,2h0Z"/><path d="M1308.6,239.3c2-2.8,4-5.1,6.3-7.5,1.6,.8,2.8,1.6,4,2.4,4.8,2.8,9.9,4,15.4,4,3.2,0,6.7,0,9.9-.4,1.6,0,2.8-.8,4.4-1.2,1.2-.4,2-1.6,2-3.2s-.8-2.4-2-2.8c-2.4-.8-5.1-1.6-7.9-2-5.1-.8-10.3-1.2-15.4-2-2.8-.4-5.9-1.6-8.3-3.2-8.7-4.8-7.1-14.7-2-19,2.8-2.4,6.3-4,9.9-4.8,10.7-2.4,21.4-1.2,31.7,3.2,1.2,.8,2.8,1.6,4,2.4-2,2.8-4,5.5-5.9,7.9-.8-.4-1.2-.4-1.6-.8-7.9-4.4-16.2-4.8-24.9-3.6-1.2,0-2.8,.8-3.6,1.6-2.4,1.2-2,4,.4,4.8s4.8,1.2,7.5,1.6c4.8,.8,9.5,.8,14.3,1.6,3.2,.4,6.3,1.6,9.5,3.2,9.5,4.8,8.3,15.8,2,21-2.4,2-5.1,3.2-7.9,4-12.7,3.2-24.9,1.6-36.4-4.8-2.6-.5-3.8-1.6-5.4-2.4h0Z"/><path d="M822,239.3l6.3-7.5c3.2,2.4,6.3,4,9.9,5.1,6.3,2,13.1,2.4,19.4,1.2,1.6,0,2.8-.8,4-1.2s2-1.6,2-3.2-.8-2.4-2-2.8c-2.4-.8-5.1-1.6-7.5-2-5.1-.8-10.7-1.2-15.8-2-2.8-.4-5.9-1.6-8.3-3.2-8.7-4.4-7.1-14.7-2-19,3.2-2.8,6.7-4,10.3-4.8,10.7-2,21-1.2,30.9,3.2,1.6,.8,2.8,1.6,4.8,2.4l-5.9,7.9c-.8-.4-1.2-.8-2-.8-7.9-4.4-16.2-4.8-24.9-3.6-.8,0-1.6,.4-2,.8-2.4,.8-3.6,2-3.2,3.2,.4,2,1.6,2.8,3.2,2.8,2,.4,4,.8,5.9,1.2,4.8,.4,9.5,.8,14.3,1.6,3.2,.4,6.3,1.6,9.5,3.2,9.5,4.8,8.3,15.8,1.6,21-3.6,2.8-7.5,4-11.9,4.8-10.3,1.6-20.2,.4-29.7-4-2.6-1.2-5-2.7-6.9-4.3h0Z"/><path d="M1415.6,205.6l-5.9,7.9c-.4,0-.8,0-.8-.4-7.9-4.8-16.2-5.1-25.3-4-1.6,0-2.8,.8-4,1.2s-2,1.2-2,2.8c0,1.2,.8,2,2,2.4,2.4,.8,4.8,1.2,7.1,1.6,4.8,.8,9.5,.8,14.3,1.6,3.2,.4,6.3,1.6,9.5,3.2,9.5,4.8,8.7,15.8,1.6,21-3.6,2.8-7.9,4-11.9,4.8-9.9,1.6-19.8,.4-29.3-4-2.4-1.2-4.8-2.4-7.1-4.8,2-2.4,4-4.8,5.9-7.5q.4,0,.8,.4c4.4,3.2,9.1,4.8,14.3,5.5,4.8,.8,9.5,.8,14.3,0,1.6-.4,3.2-.8,4.4-1.6,2.8-1.6,2.8-4.4,0-5.5-2.4-.8-5.1-1.6-7.5-2-4.4-.8-9.1-.8-13.5-1.6-2.8-.4-5.5-1.2-8.3-2.4-1.2-.4-2.4-1.2-3.6-1.6-7.1-4.4-6.3-12.7-2.8-17,2-2,4-3.6,6.7-4.8,4-1.6,8.3-2.4,12.7-2.8,8.7-.4,16.6,.8,24.6,4.8,1.4,1.2,2.2,2,3.8,2.8h0Z"/><path d="M763.3,200.9h12.7v27.8c.4,5.1,3.6,8.7,9.1,9.5,7.1,.8,13.1-1.6,17.4-7.5,.8-1.2,1.2-2.4,1.2-4v-25c2-.4,9.5-.8,12.7,0v45.5h-12.7v-7.9c-.4,.4-.8,.4-.8,.8-5.9,7.1-13.5,8.7-22.2,8.3-1.6,0-3.2-.4-4.4-.8-7.5-2.4-12.3-8.3-13.1-16.6v-27.4l.1-2.7h0Z"/><path d="M1092.8,246.4c7.1-7.9,13.5-15.4,20.2-23-6.7-7.5-13.1-15-20.2-22.6h13.1c1.2,0,2,.4,3.2,1.6,3.6,4,6.7,7.9,10.3,11.9,.4,.8,1.2,1.2,1.6,2,.8-1.2,2-2,2.8-3.2,3.2-3.6,6.3-7.1,9.5-10.7,.4-.4,1.2-1.2,2-1.2h13.5c-6.7,7.5-13.5,15-20.2,22.6,6.7,7.5,13.5,15,20.2,23.4h-12.3c-2,0-2.8-.4-4-2-3.2-4-6.7-7.9-9.9-11.9-.4-.8-1.2-1.2-1.6-2-.4,.8-1.2,1.2-1.6,2-3.6,4-7.1,7.9-10.7,12.3-.8,1.2-2,1.6-3.2,1.6h-10.3c-1.2-.8-1.6-.8-2.4-.8h0Z"/><path d="M884.5,190.2h13.1v10.7h18.6v9.5h-18.6c0,.8-.4,1.6-.4,2v17c0,5.5,2.8,8.3,8.3,7.9,2,0,3.6-.8,5.5-1.2,.8,0,1.6-.8,2.8-1.2l2.8,8.7c-2.8,2-5.9,3.2-9.1,4-4,.8-8.3,1.2-12.3,0-6.7-2-11.1-7.1-11.1-14.3v-22.6h-8.3v-9.5h8.3l.4-11h0Z"/><path d="M1469.4,233.7c5.1-11.1,10.3-21.8,15.4-32.9h13.5c-.4,.8-.4,1.2-.8,2-7.1,13.9-13.9,28.1-21,42-.8,1.2-1.2,2-2.8,2h-11.9c-7.5-15-15-30.5-23-45.5h13.9c5.1,11.1,10.3,21.8,15.4,32.9l1.3-.5h0Z"/><path d="M1229,246.4h-12.7v-45.5h12.7v7.9l.4,.4c4.8-6.7,11.9-9.5,19.8-9.5v10.7c-2,.4-3.6,.4-5.5,.8-5.5,.8-9.9,3.2-13.1,7.9-1.2,2-2,4-2,6.3v18.2c0,.8,0,1.6,.4,2.8h0Z"/><path d="M1423.1,200.9h12.7v45.5h-12.7v-45.5Z"/><path d="M1429,195.3c-1.2-.4-2.8-.8-4.4-1.2-2-1.2-3.2-3.2-3.2-5.5s1.2-4.4,3.2-5.1c2.4-1.2,4.8-1.2,7.5-.8,3.2,.8,4.8,3.2,4.8,5.9s-1.6,5.1-4.8,5.9c-.7,.4-1.5,.4-3.1,.8h0Z"/><path class="cls-1" d="M501.04,.05h-113.12v-.02c-83.44,.21-186.56-.15-269.29,0-7.36,0-13.83,5.48-15.81,13.4L53.26,211.57l-3.36,13.43L.35,423.11c-1.69,6.75,2.85,13.43,9.12,13.43,22.25,.18,69.56-.13,92.08,0v.02c86.87-.09,204.33,.07,290.31,0,7.37,0,13.83-5.48,15.81-13.4,25.48-102.07,77.04-307.91,102.47-409.69h0c1.68-6.73-2.85-13.4-9.11-13.4ZM155.17,13.44h35.22v.02h147.62l-49.55,198.13h-62.13v-.02H105.61L155.17,13.44Zm-52.91,211.56h68.33l-49.55,198.11H52.71l49.55-198.11Zm253.07,198.12H173.42s49.55-198.1,49.55-198.11h181.91l-49.55,198.11Zm52.91-211.54h-67.42L390.36,13.45h67.42l-49.55,198.13Z"/><rect class="cls-1" x="75.84" y="194.64" width="358.81" height="47.3"/><rect class="cls-1" x="120.08" y=".04" width="358.81" height="47.3"/><rect class="cls-1" x="33.91" y="389.25" width="358.81" height="47.3"/></g></g></g></svg>