<?xml version="1.0" encoding="UTF-8"?><svg id="_イヤー_1" xmlns="http://www.w3.org/2000/svg" viewBox="0 0 1055.93 808.51"><defs><style>.cls-1{fill:#1c1d1d;}</style></defs><path class="cls-1" d="M1036.36,.1h-233.99v-.03c-172.6,.39-385.88-.28-557.01,0-15.23,0-28.6,10.14-32.7,24.82L110.17,391.8l-6.95,24.86L.73,783.54c-3.49,12.49,5.9,24.86,18.87,24.86,46.01,.34,143.88-.24,190.45,0v.03c179.69-.17,422.65,.12,600.48,0,15.24,0,28.61-10.15,32.71-24.82,52.7-189.01,159.36-570.2,211.94-758.69h0c3.48-12.47-5.89-24.82-18.83-24.82ZM320.95,24.89h72.86v.03h305.34l-102.5,366.92h-128.51v-.03H218.45L320.95,24.89Zm-109.45,391.78h141.34l-102.49,366.87H109.02l102.49-366.87Zm523.47,366.9h-247.75v.02h-128.52s102.49-366.88,102.49-366.89h376.27l-102.49,366.87Zm109.43-391.73h-139.46L807.44,24.92h139.46l-102.5,366.92Z"/><rect class="cls-1" x="156.88" y="360.45" width="742.17" height="87.6"/><rect class="cls-1" x="248.38" y=".07" width="742.17" height="87.6"/><rect class="cls-1" x="70.13" y="720.83" width="742.17" height="87.6"/></svg>